<svg width="120" height="105" viewBox="0 0 120 105" fill="none" xmlns="http://www.w3.org/2000/svg">
<path d="M59.9727 5.81774C65.0202 1.45529 69.7913 0.0790239 76.3868 1.0829C82.9442 2.08098 89.042 3.94529 90.5913 10.3948C91.4199 13.8443 92.8727 19.2307 89.3286 19.3909C86.1286 19.5356 85.8109 15.4379 85.2251 12.2887C83.5555 3.31288 96.8343 -0.915166 105.743 1.0829C112.761 2.65697 117.9 6.75928 119 13.867C119.911 19.7488 118.122 24.3503 113.476 28.0715" stroke="#697452" stroke-width="1.26262" stroke-dasharray="5.68 5.68"/>
<path fill-rule="evenodd" clip-rule="evenodd" d="M25.4775 82.9435C24.0868 84.7085 21.9302 85.8426 19.5109 85.8426C15.3208 85.8426 11.9189 82.4407 11.9189 78.2505C11.9189 74.0604 15.3208 70.6586 19.511 70.6586C20.0263 70.6586 20.5297 70.7099 21.0163 70.808L14.8552 54.0483L30.4573 48.3127C28.6952 46.9219 27.5633 44.7673 27.5633 42.3503C27.5633 38.1601 30.9652 34.7581 35.1554 34.7581C39.3455 34.7581 42.7475 38.1602 42.7475 42.3503C42.7475 42.8634 42.6964 43.3646 42.5992 43.8492L56.5688 38.7137L62.5669 55.0299C62.2558 54.991 61.9388 54.9709 61.6173 54.9709C57.4271 54.9709 54.0252 58.3729 54.0252 62.5631C54.0252 66.7532 57.4271 70.1551 61.6173 70.1551C63.8343 70.1551 65.8306 69.2027 67.2192 67.6851L73.7213 85.3723L32.0076 100.707L25.4775 82.9435Z" fill="#172300"/>
<path fill-rule="evenodd" clip-rule="evenodd" d="M25.4775 82.9435C24.0868 84.7085 21.9302 85.8426 19.5109 85.8426C15.3208 85.8426 11.9189 82.4407 11.9189 78.2505C11.9189 74.0604 15.3208 70.6586 19.511 70.6586C20.0263 70.6586 20.5297 70.7099 21.0163 70.808L14.8552 54.0483L30.4573 48.3127C28.6952 46.9219 27.5633 44.7673 27.5633 42.3503C27.5633 38.1601 30.9652 34.7581 35.1554 34.7581C39.3455 34.7581 42.7475 38.1602 42.7475 42.3503C42.7475 42.8634 42.6964 43.3646 42.5992 43.8492L56.5688 38.7137L62.5669 55.0299C62.2558 54.991 61.9388 54.9709 61.6173 54.9709C57.4271 54.9709 54.0252 58.3729 54.0252 62.5631C54.0252 66.7532 57.4271 70.1551 61.6173 70.1551C63.8343 70.1551 65.8306 69.2027 67.2192 67.6851L73.7213 85.3723L32.0076 100.707L25.4775 82.9435ZM55.9 51.3546L53.6075 45.1182L44.3208 48.5321C42.6254 49.1554 40.7256 48.8136 39.3537 47.6386C37.9818 46.4636 37.3521 44.6389 37.7073 42.8679C37.7409 42.7005 37.7581 42.5275 37.7581 42.3503C37.7581 40.9138 36.5919 39.7475 35.1554 39.7475C33.7189 39.7475 32.5526 40.9137 32.5526 42.3502C32.5526 43.18 32.9434 43.9189 33.5485 44.3964C34.9664 45.5155 35.6686 47.3137 35.3845 49.0975C35.1004 50.8814 33.8743 52.3724 32.1788 52.9957L21.2596 57.0098L25.6992 69.0865C26.3227 70.7825 25.9803 72.6832 24.8043 74.0551C23.6282 75.4271 21.8022 76.0558 20.0308 75.6989C19.8627 75.6651 19.6889 75.6478 19.5109 75.6478C18.0744 75.6478 16.9082 76.8141 16.9082 78.2506C16.9082 79.6871 18.0745 80.8534 19.511 80.8534C20.3416 80.8534 21.081 80.4617 21.5584 79.8557C22.6768 78.4362 24.4753 77.7324 26.2601 78.0159C28.0449 78.2994 29.5368 79.5258 30.1604 81.222L34.969 94.3024L67.3168 82.4109L64.5216 74.8072C63.5892 75.0277 62.6167 75.1443 61.6173 75.1443C54.6734 75.1443 49.0359 69.5069 49.0359 62.563C49.0359 57.6773 51.8268 53.4382 55.9 51.3546Z" fill="#172300"/>
<path d="M61.1435 76.9276C68.6095 76.9276 74.662 70.8752 74.662 63.4091C74.662 55.9431 68.6095 49.8906 61.1435 49.8906C53.6774 49.8906 47.625 55.9431 47.625 63.4091C47.625 70.8752 53.6774 76.9276 61.1435 76.9276Z" stroke="#EB3D00" stroke-width="3" stroke-miterlimit="1.5" stroke-linejoin="round"/>
<path fill-rule="evenodd" clip-rule="evenodd" d="M92.5643 77.9408L78.3909 83.3252L71.2944 64.6451C70.9284 63.933 70.1864 63.4452 69.3313 63.4452C68.5513 63.4452 67.8654 63.851 67.4731 64.4626L67.4689 64.4515C67.4481 64.4935 67.4267 64.5353 67.4048 64.5766L67.3722 64.6369C66.4949 66.2386 64.7933 67.3256 62.8399 67.3256C59.9897 67.3256 57.6758 65.0117 57.6758 62.1616C57.6758 59.3115 59.9897 56.9975 62.8399 56.9975C63.4612 56.9975 64.057 57.1075 64.6089 57.309C64.6482 57.3242 64.6875 57.3391 64.7271 57.3537L64.7805 57.3751L64.779 57.371C64.9902 57.4383 65.2152 57.4747 65.4486 57.4747C66.6661 57.4747 67.6545 56.4862 67.6545 55.2688C67.6545 55.1883 67.6502 55.1088 67.6417 55.0305L60.6423 36.6063L102.252 20.7988L109.42 39.6687C109.429 39.747 109.433 39.8265 109.433 39.907C109.433 41.1244 108.445 42.1129 107.227 42.1129C106.994 42.1129 106.769 42.0765 106.557 42.0092L106.559 42.0133L106.506 41.9919C106.466 41.9773 106.427 41.9624 106.387 41.9472C105.835 41.7457 105.24 41.6357 104.618 41.6357C101.768 41.6357 99.4542 43.9496 99.4542 46.7998C99.4542 49.6499 101.768 51.9637 104.618 51.9637C106.572 51.9637 108.273 50.8767 109.151 49.2751L109.183 49.2148C109.205 49.1734 109.226 49.1317 109.247 49.0897L109.252 49.1008C109.644 48.4891 110.33 48.0834 111.11 48.0834C111.965 48.0834 112.707 48.5711 113.073 49.2833L120 67.5179L105.1 73.1785C106.691 74.5713 107.697 76.617 107.697 78.8957C107.697 83.088 104.293 86.4917 100.101 86.4917C95.9084 86.4917 92.5047 83.088 92.5047 78.8957C92.5047 78.5723 92.525 78.2536 92.5643 77.9408Z" fill="#455429"/>
<path fill-rule="evenodd" clip-rule="evenodd" d="M63.3715 67.2985C63.1967 67.3165 63.0194 67.3256 62.8399 67.3256C59.9897 67.3256 57.6758 65.0117 57.6758 62.1616C57.6758 59.3115 59.9897 56.9975 62.8399 56.9975C63.4612 56.9975 64.057 57.1075 64.6089 57.309C64.6482 57.3242 64.6875 57.3391 64.7271 57.3537L64.7805 57.3751L64.779 57.371C64.9902 57.4383 65.2152 57.4747 65.4486 57.4747C66.6661 57.4747 67.6545 56.4862 67.6545 55.2688C67.6545 55.1883 67.6502 55.1088 67.6417 55.0305L66.8002 52.8154C68.0414 53.3815 68.965 54.4152 69.4137 55.6418C69.7087 56.4481 69.7985 57.3376 69.6384 58.2324C69.6247 58.3092 69.6092 58.3852 69.5921 58.4606L69.6475 58.4628C69.6714 58.3557 69.692 58.2474 69.709 58.1376C70.0591 55.8865 68.8412 53.71 66.7974 52.8078L60.6423 36.6063L102.252 20.7988L108.576 37.4461C108.448 37.3896 108.316 37.338 108.182 37.2918L108.194 37.2966L108.235 37.3121C108.277 37.3275 108.318 37.3433 108.359 37.3597C108.433 37.3893 108.507 37.4207 108.579 37.4536L109.42 39.6687C109.429 39.747 109.433 39.8265 109.433 39.907C109.433 41.1244 108.445 42.1129 107.227 42.1129C106.994 42.1129 106.769 42.0765 106.557 42.0092L106.559 42.0133L106.506 41.9919C106.466 41.9773 106.427 41.9624 106.387 41.9472C105.835 41.7457 105.24 41.6357 104.618 41.6357C101.768 41.6357 99.4542 43.9496 99.4542 46.7998C99.4542 49.6499 101.768 51.9637 104.618 51.9637C104.798 51.9637 104.975 51.9546 105.15 51.9367C105.999 53.1592 107.349 53.9366 108.827 54.0613L108.843 54.0682C108.918 54.074 108.985 54.0773 109.041 54.0791L109.095 54.171L109.114 54.1781L109.072 54.0799C109.157 54.0819 109.214 54.0804 109.236 54.0796L109.236 54.0791H109.246L108.321 52.3879C108.122 51.9503 107.897 51.4667 107.66 50.972C108.273 50.5242 108.784 49.9446 109.151 49.2751L109.183 49.2148C109.205 49.1734 109.226 49.1317 109.247 49.0897L109.252 49.1008C109.644 48.4891 110.33 48.0834 111.11 48.0834C111.965 48.0834 112.707 48.5711 113.073 49.2833L120 67.5179L105.1 73.1785C106.691 74.5713 107.697 76.617 107.697 78.8957C107.697 83.088 104.293 86.4917 100.101 86.4917C95.9084 86.4917 92.5047 83.088 92.5047 78.8957C92.5047 78.5723 92.525 78.2536 92.5643 77.9408L78.3909 83.3252L71.2944 64.6451C70.9284 63.933 70.1864 63.4452 69.3313 63.4452C68.5513 63.4452 67.8654 63.851 67.4731 64.4626L67.4689 64.4515C67.4481 64.4935 67.4267 64.5353 67.4048 64.5766L67.3722 64.6369C67.0055 65.3064 66.4947 65.886 65.8818 66.3339C65.1031 64.7086 64.1883 62.963 63.5804 62.331L63.5139 62.2095C63.6071 62.2326 63.6971 62.2523 63.7832 62.269C63.7164 62.2531 63.6499 62.2362 63.5838 62.2185C64.1743 62.3679 64.5714 62.3552 64.6899 62.3465C64.7145 62.3447 64.7271 62.3431 64.7271 62.3431L64.671 62.3427L63.4551 62.1018L63.2733 61.7691C63.3393 61.6662 63.4079 61.565 63.479 61.4657L60.115 59.143C60.7392 60.786 61.847 61.5926 62.8263 61.9873C62.7362 61.9942 62.6651 62.0697 62.6651 62.1616C62.6651 62.258 62.7434 62.3363 62.8399 62.3363C62.908 62.3363 62.9658 62.2959 62.9964 62.2401C62.6254 62.9373 62.4535 63.5859 62.4308 64.1854C62.4834 63.5154 62.6716 62.8529 62.9964 62.2401C62.5387 63.1657 62.3867 64.1936 62.5337 65.1841C62.6434 65.626 62.8331 66.035 63.0758 66.411L62.8049 66.2238C62.9173 66.5195 63.0586 66.8068 63.2288 67.0812C63.2746 67.1551 63.3222 67.2276 63.3715 67.2985ZM107.331 51.1935C107.416 51.1414 107.498 51.087 107.579 51.0303L108.321 52.3879C108.616 53.0363 108.857 53.5837 109.001 53.917L109.236 54.0791C109.18 54.0789 109.125 54.0779 109.07 54.0759L109.072 54.0799L109.041 54.0791L109.038 54.0747C108.968 54.0718 108.897 54.0673 108.827 54.0613C108.147 53.7716 106.632 53.042 105.522 51.8849C105.661 51.8603 105.797 51.8302 105.932 51.7948L108.906 53.851L107.331 51.1935ZM63.5804 62.331L65.8004 66.3921C65.7196 66.4488 65.6371 66.5032 65.5529 66.5553L62.9964 62.2401L62.9974 62.2382L62.9994 62.2342L63.0121 62.2105C63.0437 62.1519 63.0818 62.1148 63.1257 62.0972C63.0278 62.0647 62.9277 62.0282 62.8263 61.9873L62.8399 61.9867C62.8553 61.9867 62.8704 61.9881 62.8846 61.9917L62.9495 62.0158L62.8765 61.9871L63.4551 62.1018L63.4865 62.1593L63.3507 62.1382C63.3612 62.1444 63.3719 62.1512 63.3827 62.1584C63.4229 62.1697 63.4632 62.1805 63.5037 62.1908L63.5075 62.1976L63.5838 62.2185L63.5081 62.1987L63.5139 62.2095L63.4199 62.1852C63.4706 62.2236 63.5242 62.2726 63.5804 62.331ZM64.6899 62.3465L64.6655 62.3426L64.671 62.3427L64.6899 62.3465ZM64.6655 62.3426C64.2731 62.3378 63.8831 62.2867 63.5037 62.1908L63.4865 62.1593L64.6655 62.3426ZM63.0758 66.411L64.1539 67.1566C64.019 67.192 63.8821 67.2221 63.7432 67.2467C63.4961 66.9893 63.2692 66.7106 63.0758 66.411ZM109.151 54.2644L109.246 54.2081L109.244 54.208L109.151 54.2644ZM109.246 54.2081C109.315 54.2113 109.439 54.2138 109.605 54.2044L109.598 54.1868C109.484 54.1963 109.369 54.2019 109.253 54.2035L109.246 54.2081ZM109.253 54.2035L109.452 54.0861L109.444 54.0864L109.251 54.2037L109.253 54.2035ZM109.251 54.2037L109.183 54.204C109.183 54.204 109.204 54.2061 109.244 54.208L109.251 54.2037ZM109.151 54.2644L109.125 54.2038L109.115 54.2037L109.151 54.2644ZM110.051 55.3778C108.48 56.3754 106.616 56.9531 104.618 56.9531C99.0145 56.9531 94.4649 52.4036 94.4649 46.7998C94.4649 41.7521 98.1563 37.5597 102.985 36.7774L99.3594 27.2348L67.0783 39.4984L72.3058 53.2586C72.4571 53.6569 72.5568 54.0729 72.6024 54.4966C72.6297 54.7503 72.6438 55.0079 72.6438 55.2688C72.6438 56.5728 72.2962 57.7962 71.6886 58.8513C73.4445 59.4604 74.8922 60.7306 75.732 62.3645C75.8169 62.5298 75.8925 62.6996 75.9585 62.8732L81.2831 76.8893L90.7924 73.2767C92.4292 72.6549 94.2721 72.9366 95.6484 74.0189C97.0247 75.1012 97.733 76.8256 97.5147 78.5629C97.501 78.6719 97.494 78.783 97.494 78.8957C97.494 80.3343 98.6621 81.5024 100.101 81.5024C101.539 81.5024 102.707 80.3343 102.707 78.8957C102.707 78.1131 102.36 77.4112 101.814 76.9328C100.496 75.7793 99.8792 74.0191 100.189 72.2953C100.499 70.5714 101.691 69.1365 103.328 68.5144L113.564 64.6257L110.051 55.3778Z" fill="#455429"/>
</svg>
