<svg width="225" height="193" viewBox="0 0 225 193" fill="none" xmlns="http://www.w3.org/2000/svg">
<path d="M77.8601 233.364C137.981 243.741 195.246 203.595 205.765 143.696C216.283 83.7973 176.073 26.8276 115.952 16.4509C55.8313 6.07412 -1.43346 46.2198 -11.9523 106.119C-22.4712 166.018 17.7392 222.987 77.8601 233.364Z" fill="#162113"/>
<path d="M63.8621 75.0077L63.8631 75.0079L63.8632 75.0069C63.8639 75.0064 63.8653 75.0064 63.8665 75.0056C63.869 75.0037 63.8724 75.0003 63.8772 74.9967C63.887 74.9894 63.9014 74.9784 63.9204 74.9642C63.9583 74.9359 64.0144 74.8942 64.0872 74.8393C64.2331 74.7291 64.4472 74.567 64.7192 74.3574C65.2633 73.9382 66.0413 73.3295 66.9786 72.5712C68.8527 71.0551 71.3666 68.9379 73.9226 66.5353C76.4768 64.1343 79.0834 61.4391 81.136 58.7671C83.1721 56.1165 84.7103 53.4274 85.058 51.0366L85.0591 51.0358C85.9029 46.2759 85.0369 41.7442 82.6621 38.1741C80.2848 34.6006 76.4179 32.0238 71.328 31.1389C61.4216 29.4169 52.9692 35.5993 51.274 45.1626C50.8531 47.5376 51.4253 50.5949 52.462 53.786C53.5044 56.9942 55.0416 60.4091 56.6219 63.5284C58.2031 66.6496 59.8336 69.4866 61.0682 71.5429C61.6857 72.5714 62.2047 73.4055 62.5696 73.9827C62.752 74.2712 62.8957 74.4958 62.9942 74.6484C63.0434 74.7246 63.0817 74.783 63.1073 74.8224C63.1201 74.8419 63.1298 74.8567 63.1364 74.8668C63.1397 74.8718 63.1424 74.8756 63.1441 74.8782C63.1449 74.8794 63.145 74.8808 63.1455 74.8814L63.1463 74.8826L63.4369 75.3235L63.8621 75.0077Z" fill="#E73D00" stroke="#E73D00"/>
<path fill-rule="evenodd" clip-rule="evenodd" d="M67.5742 97.4472C68.2392 97.0787 70.8338 97.7552 70.8338 97.7552C70.8338 97.7552 68.1391 110.529 67.362 117.059C67.2376 118.104 68.2194 119.339 69.2418 119.592C74.2689 120.834 97.5251 124.511 97.5251 124.511C108.771 126.467 117.695 125.164 124.298 120.602C130.902 116.041 135.023 109.131 136.662 99.8724C138.328 90.4625 136.844 82.695 132.211 76.5699C127.578 70.4449 119.562 66.3912 108.165 64.4089L90.7992 61.3884C93.0737 58.4578 94.7729 55.5316 95.1291 53.0375C95.6654 50.0084 95.4915 47.0855 94.67 44.4614L111.188 47.3343C123.193 49.4224 132.974 53.2356 140.531 58.774C148.087 64.3124 153.299 70.9292 156.166 78.6244C159.033 86.3197 159.674 94.6446 158.089 103.599C156.155 114.527 151.295 123.616 143.511 130.867C135.727 138.117 125.286 142.012 112.189 142.55C112.189 142.55 135.311 202.252 139.795 214.452C139.964 214.914 139.576 215.837 139.09 215.753C134.873 215.019 120.799 212.571 116.582 211.838C115.883 211.716 115.263 211.069 115.01 210.407C110.432 198.464 89.1123 140.179 89.1123 140.179L64.038 135.818C64.038 135.818 54.938 188.524 52.8001 199.299C52.6723 199.943 51.8578 200.58 51.2106 200.468C47.9567 199.902 36.333 197.88 33.0791 197.314C32.4113 197.198 31.9012 196.554 32.0736 195.551C34.1297 183.592 50.0371 94.1234 50.0371 94.1234C50.0371 94.1234 52.9905 94.7429 53.5083 95.3725C54.9354 97.1077 56.2554 104.189 58.5997 104.535C60.944 104.881 65.5352 98.5771 67.5742 97.4472Z" fill="#ECE2CE"/>
</svg>
