<svg width="228" height="208" viewBox="0 0 228 208" fill="none" xmlns="http://www.w3.org/2000/svg">
<path d="M64.8571 143.514C81.1525 149.14 93.8327 150.893 110.06 153.136C136.277 156.764 141.455 154.44 159.748 158.177C177.103 161.724 190.504 167.486 198.686 171.535C215.946 153.557 226.424 130.034 226.424 104.256C226.424 47.8063 176.247 2.05176 114.355 2.05176C52.4623 2.05176 2.28516 47.8063 2.28516 104.256C2.28516 109.664 2.76083 114.977 3.64423 120.155C9.62418 122.139 18.8251 125.291 29.9424 129.518C49.6219 137.005 53.6583 139.642 64.8707 143.514H64.8571Z" fill="url(#paint0_linear_5415_71437)"/>
<path d="M81.3125 103.236L115.521 107.925L157.285 91.4953C166.391 93.5744 175.483 95.6535 184.589 97.7327C186.206 90.5033 185.649 84.823 184.997 81.3034C183.067 70.9893 177.318 63.8958 171.256 56.4218C167.356 51.6112 163.686 47.9965 161.036 45.5776C158.685 38.6064 154.608 29.0669 147.35 19.174C141.9 11.7407 136.179 6.18278 131.408 2.20117C127.657 4.89182 122.819 8.95496 118.198 14.7847C114.325 19.6904 111.729 24.4058 109.989 28.1972C106.768 28.5233 103.547 28.863 100.326 29.1892C93.9927 53.8806 87.6458 78.572 81.3125 103.263V103.236Z" fill="#FDF6E3"/>
<path d="M131.462 71.8317C131.516 72.5111 132.386 81.1538 138.95 84.6462C144.93 87.8397 151.767 84.687 159.174 81.2897C162.612 79.7134 164.365 78.8845 165.575 76.9956C168.905 71.7909 165.942 63.2841 161.171 58.4328C160.791 58.0387 152.596 49.9668 142.729 53.3913C134.792 56.1499 130.837 64.6159 131.448 71.8317H131.462Z" fill="#FFFFF6"/>
<path d="M98.9826 29.1621C102.244 31.1054 107.259 34.8152 109.176 40.8759C111.214 47.3444 108.768 53.4459 102.978 65.1325C97.6099 75.9766 94.919 81.3987 88.0556 93.031C82.9998 101.592 76.3947 114.013 70.1022 130.306C67.5471 129.463 53.3991 124.49 46.8756 110.045C42.8255 101.076 43.6138 92.6233 43.8312 90.6257C44.3749 85.7608 45.8019 81.8879 46.9707 79.3331C44.0351 74.7672 39.7676 66.8176 37.9872 56.0686C36.6145 47.7928 37.2125 40.7672 38.0008 35.9838C43.4371 34.5162 50.9528 33.0894 59.9635 33.1301C68.5393 33.1845 75.7288 34.557 81.002 35.9838C83.0678 34.3803 86.2481 32.3012 90.5427 30.8472C93.8045 29.7329 96.7401 29.3116 98.9826 29.1621Z" fill="url(#paint1_linear_5415_71437)"/>
<path d="M145.422 86.2633C152.598 86.2633 158.415 80.8303 158.415 74.1282C158.415 67.4262 152.598 61.9932 145.422 61.9932C138.247 61.9932 132.43 67.4262 132.43 74.1282C132.43 80.8303 138.247 86.2633 145.422 86.2633Z" fill="#23221E"/>
<path d="M72.794 100.682C81.0708 109.107 103.006 103.549 106.431 90.9387C108.28 84.117 104.76 75.121 97.3661 71.1122C89.0893 66.6278 78.937 70.0115 73.5415 76.7109C67.5887 84.0898 67.5479 95.328 72.8076 100.682H72.794Z" fill="#FFFFF6"/>
<path d="M147.705 73.1777C150.452 73.1777 152.679 70.9509 152.679 68.2041C152.679 65.4572 150.452 63.2305 147.705 63.2305C144.958 63.2305 142.73 65.4572 142.73 68.2041C142.73 70.9509 144.958 73.1777 147.705 73.1777Z" fill="#FFFFFB"/>
<path d="M91.1402 100.682C98.9539 100.682 105.288 94.884 105.288 87.7317C105.288 80.5794 98.9539 74.7812 91.1402 74.7812C83.3265 74.7812 76.9922 80.5794 76.9922 87.7317C76.9922 94.884 83.3265 100.682 91.1402 100.682Z" fill="#23221E"/>
<path d="M96.0992 86.2636C98.8464 86.2636 101.073 84.0369 101.073 81.29C101.073 78.5432 98.8464 76.3164 96.0992 76.3164C93.352 76.3164 91.125 78.5432 91.125 81.29C91.125 84.0369 93.352 86.2636 96.0992 86.2636Z" fill="#FFFFFB"/>
<path d="M72.2622 101.035C60.6421 85.7341 74.6406 64.5622 93.1105 68.2313C103.154 70.2832 110.493 81.1409 106.946 91.0746C106.742 91.6997 105.777 91.4551 105.886 90.8164C107.775 81.4263 101.849 72.6613 92.5397 70.7453C80.6749 68.2177 68.2937 79.6597 70.3595 91.754C70.7808 94.7301 71.8545 97.6381 73.2951 100.342C73.6892 100.995 72.6835 101.661 72.235 101.035H72.2622Z" fill="#2C1609"/>
<path d="M130.854 71.9681C125.322 50.6332 154.583 43.5261 164.477 60.7979C167.467 65.7307 168.092 71.9138 166.095 77.1456C165.986 77.4309 165.673 77.5668 165.388 77.4581C165.13 77.363 164.994 77.0912 165.048 76.8466C166.72 69.2095 163.784 60.9881 157.206 56.6668C151.063 52.4405 141.808 52.7939 136.276 57.7539C132.417 61.1919 131.397 66.6819 132.063 71.6827C132.199 72.4301 131.03 72.6883 130.827 71.9681H130.854Z" fill="#2C1609"/>
<path d="M72.6298 66.9539C76.5984 65.0107 80.363 62.7413 83.9102 60.1729C87.3079 57.2513 91.9163 57.1305 96.3062 55.7852C96.4828 55.7308 96.5916 56.0706 96.5916 56.0706C93.7514 60.1729 89.9445 61.1242 85.609 62.9587C81.559 65.0378 77.2099 66.5055 72.7522 67.348C72.5347 67.3887 72.4124 67.0626 72.6298 66.9675V66.9539Z" fill="#2C1609"/>
<path d="M169.246 90.4217C173.787 90.4217 177.468 87.9394 177.468 84.8774C177.468 81.8153 173.787 79.333 169.246 79.333C164.705 79.333 161.023 81.8153 161.023 84.8774C161.023 87.9394 164.705 90.4217 169.246 90.4217Z" fill="url(#paint2_linear_5415_71437)"/>
<path d="M146.606 35.8753C142.99 34.0815 138.601 32.247 133.477 30.7114C129.318 29.4748 125.472 28.6731 122.074 28.1703C123.039 26.2678 124.629 23.5907 127.144 20.8457C130.079 17.6251 132.308 15.2063 134.754 15.4916C136.059 15.6411 137.554 16.5788 141.659 24.7866C143.915 29.2982 145.532 33.1575 146.592 35.8753H146.606Z" fill="url(#paint3_linear_5415_71437)"/>
<path d="M54.3769 68.2042C56.3611 68.177 56.3204 63.8829 60.4927 57.9172C65.0185 51.4352 69.585 50.0627 68.9462 47.7254C68.4298 45.8365 65.0592 45.2929 58.8347 44.2873C52.447 43.2546 49.2532 42.7382 47.6223 44.4096C45.5021 46.5839 46.7933 50.8237 48.7639 57.4008C50.2317 62.2522 52.0257 68.2314 54.3633 68.2042H54.3769Z" fill="url(#paint4_linear_5415_71437)"/>
<path d="M152.693 45.6867C147.732 46.9369 142.473 47.8746 137.363 47.4805C135.65 47.168 133.965 46.6788 132.388 45.6867C132.28 45.6188 132.307 45.4421 132.429 45.415C135.908 44.4637 139.102 44.7491 142.541 45.2247C145.898 45.4557 149.268 45.5237 152.652 45.415C152.802 45.415 152.843 45.646 152.693 45.6867Z" fill="#2C1609"/>
<path d="M54.946 122.629C42.6327 112.437 38.8001 93.3578 46.0168 79.1299C46.3022 78.5728 47.1992 78.9261 47.0225 79.5376C42.3881 94.4041 45.514 110.032 55.8294 121.745C56.305 122.303 55.5032 123.104 54.946 122.642V122.629Z" fill="#2C1609"/>
<path d="M49.0231 82.8123C38.531 69.8619 34.182 52.2096 36.7234 35.7804C36.805 35.2504 37.1991 34.8427 37.6884 34.7204C44.8099 32.9131 52.149 31.9346 59.5016 31.9754C66.8542 32.0162 74.1932 32.9402 81.3012 34.7884L80.377 34.9243C91.8341 28.2928 105.765 25.6293 118.744 28.4015C119.043 28.4694 119.22 28.7548 119.165 29.0538C119.111 29.3255 118.839 29.5158 118.567 29.475C105.819 27.8715 92.5815 30.2904 81.641 37.0442C81.3556 37.2208 81.0158 37.2616 80.7168 37.18C73.7855 35.4814 66.6503 34.6253 59.5152 34.6525C52.3936 34.6932 45.2584 35.5086 38.3271 37.248L39.2921 36.188C36.6419 52.1824 40.8006 68.7747 50.0424 82.0649C50.5045 82.69 49.5124 83.451 49.0367 82.8259L49.0231 82.8123Z" fill="#2C1609"/>
<path d="M109.407 27.9397C113.239 16.9461 121.027 7.51527 130.771 1.19633C131.206 0.910956 131.75 0.965312 132.117 1.26427C142.854 9.51287 151.552 20.357 157.423 32.5464C159.366 36.6232 160.97 40.8494 162.261 45.1843L161.894 44.6C167.48 49.8046 172.563 55.58 176.858 61.9125C181.18 68.1771 185.651 74.8765 186.507 82.6495C187.2 87.7726 186.67 93.0316 185.107 97.8829C185.012 98.1683 184.713 98.3314 184.428 98.2362C184.156 98.1547 184.006 97.8693 184.061 97.5975C185.76 90.3953 185.556 82.731 182.702 75.8957C177.293 64.7934 169.097 54.9821 160.127 46.5296C159.951 46.3666 159.828 46.1627 159.76 45.9453C157.178 37.5744 153.359 29.5976 148.453 22.341C143.533 15.098 137.499 8.6024 130.663 3.11239L132.008 3.18034C122.44 9.09161 115.074 18.1284 110.562 28.4153C110.263 29.1491 109.121 28.7007 109.393 27.9533L109.407 27.9397Z" fill="#2C1609"/>
<path d="M127.385 93.0036C128.853 92.7726 129.899 91.2642 130.294 90.0412C130.688 88.8046 130.756 86.8342 129.709 85.9645C127.249 83.9125 119.489 88.7774 119.924 90.4081C120.073 90.9788 121.12 90.6935 124.219 91.9573C126.108 92.7183 126.488 93.1531 127.372 93.0036H127.385Z" fill="#D46261"/>
<path d="M113.577 102.191C119.693 104.732 125.523 100.682 128.187 95.2059C128.336 94.9341 128.771 95.1107 128.69 95.4097C127.181 101.824 119.258 106.702 113.291 102.761C112.992 102.558 113.237 102.082 113.563 102.191H113.577Z" fill="#2C1609"/>
<path d="M128.555 95.7486C130.444 97.5696 132.918 97.9637 135.419 97.4745C136.587 97.9365 134.06 98.7926 133.638 98.8198C131.491 99.3226 128.854 98.2083 128.039 96.102C127.944 95.803 128.311 95.5448 128.555 95.7351V95.7486Z" fill="#2C1609"/>
<path d="M113.877 100.315C114.869 101.891 113.238 103.889 111.498 103.263C111.471 103.263 111.458 103.196 111.498 103.182C112.056 102.883 112.545 102.462 112.925 101.959C113.333 101.483 113.619 100.899 113.782 100.287C113.809 100.233 113.863 100.26 113.877 100.315Z" fill="#2C1609"/>
<path d="M178.08 81.0185C182.565 77.6484 188.83 76.4933 194.212 78.0968C194.498 78.1919 194.416 78.6404 194.117 78.6268C188.681 78.2055 183.312 79.1975 178.406 81.562C178.08 81.6979 177.808 81.2359 178.08 81.0185Z" fill="#2C1609"/>
<path d="M176.76 76.7107C180.688 72.7019 186.708 70.6228 192.281 71.3974C192.58 71.4517 192.566 71.9002 192.267 71.9409C186.831 72.3486 181.68 74.1288 177.168 77.1999C176.869 77.3902 176.529 76.9689 176.76 76.7107Z" fill="#2C1609"/>
<path d="M179.48 85.8563C184.658 83.7092 191.032 84.1712 195.843 87.0657C196.101 87.2288 195.898 87.65 195.612 87.5549C190.448 85.7883 185.011 85.4078 179.67 86.4542C179.33 86.5086 179.167 85.9922 179.493 85.8563H179.48Z" fill="#2C1609"/>
<path d="M37.689 108.849C41.3177 104.568 47.1889 102.068 52.7883 102.435C53.0873 102.462 53.1009 102.924 52.8155 102.978C47.42 103.767 42.405 105.927 38.1375 109.311C37.8521 109.515 37.4851 109.134 37.7026 108.863L37.689 108.849Z" fill="#2C1609"/>
<path d="M35.5683 101.579C40.0532 98.2089 46.3322 97.0538 51.7005 98.6574C51.986 98.7525 51.9044 99.2009 51.6054 99.1873C46.1691 98.7661 40.8008 99.7581 35.8945 102.123C35.5683 102.258 35.2965 101.796 35.5683 101.579Z" fill="#2C1609"/>
<path d="M41.1105 116.975C43.5025 111.907 48.5311 107.966 54.0353 106.879C54.3343 106.838 54.4703 107.273 54.1985 107.395C49.197 109.556 44.9023 112.926 41.6541 117.302C41.4367 117.573 40.9746 117.302 41.1105 116.975Z" fill="#2C1609"/>
<path d="M62.5469 101.089C79.6169 102.856 96.6869 104.609 113.771 106.375L156.84 89.2666C167.875 92.6639 178.925 96.0476 189.974 99.4448C203.076 96.265 213.214 93.9956 218.678 92.827C219.684 92.6095 221.804 92.1883 223.108 93.3433C225.256 95.2322 223.802 100.111 223.108 102.489C217.373 121.989 214.492 131.855 214.437 137.943C214.383 144.574 214.696 152.211 214.696 152.211C214.968 158.775 215.307 162.009 213.174 164.442C211.149 166.725 208.159 166.901 205.019 167.241C199.909 167.812 192.855 169.035 184.157 171.929L155.358 166.996L116.502 174.484L64.1098 165.216C63.5934 143.854 63.0905 122.478 62.5876 101.116L62.5469 101.089Z" fill="#FCF2B4"/>
<path d="M62.3556 100.858C62.2605 100.926 114.653 105.818 113.579 105.9C113.783 105.832 156.635 88.7369 156.812 88.6689C156.947 88.6689 189.973 98.8472 190.136 98.8744H189.824L206.567 95.0015L214.939 93.0582C218.283 92.2565 224.004 90.2996 224.752 95.3548C225.078 97.597 224.48 99.8528 223.896 101.959L221.49 110.208C219.9 115.698 218.296 121.201 216.937 126.732C215.959 130.89 214.966 134.994 215.13 139.288L215.211 143.569L215.374 152.144C215.456 154.97 215.768 157.838 215.415 160.827C214.572 168.233 206.432 167.499 200.914 168.437C195.246 169.334 189.66 170.747 184.211 172.555C184.115 172.595 155.398 167.54 155.262 167.554C156.214 167.54 116.352 174.96 116.501 175.014C116.406 175.001 64.1088 165.678 64.0136 165.665L63.6195 165.597V165.203C63.1167 143.691 62.8177 122.22 62.3964 100.858H62.3556ZM62.7225 101.307C63.3205 122.683 64.0273 143.949 64.5573 165.162L64.1496 164.686C64.0816 164.646 117.249 173.995 116.365 173.9C116.624 173.859 155.208 166.317 155.425 166.372C155.058 166.48 185.488 171.291 183.925 171.291C190.748 169.021 197.801 167.35 204.964 166.548C215.442 166.086 214.382 160.651 214.001 152.157L213.852 143.555L213.784 139.261C213.621 134.94 214.654 130.564 215.66 126.406C217.046 120.834 218.663 115.331 220.267 109.841L222.686 101.606C223.311 99.2413 224.344 95.9663 222.822 93.9415C220.892 92.1885 217.535 93.9008 215.184 94.2405C209.87 95.4635 195.45 98.7657 189.932 100.029C189.851 99.9071 156.771 89.8784 156.662 89.7697L157.029 89.7561C156.92 89.824 113.933 106.824 113.824 106.878C113.688 106.865 62.872 101.32 62.7225 101.307Z" fill="#32471C"/>
<path d="M158.903 93.3164L188.911 101.918L184.127 167.853L155.328 159.183L158.889 93.3164H158.903Z" fill="url(#paint5_linear_5415_71437)"/>
<path d="M86.4648 108.224V145.77C96.4677 148.23 106.47 150.676 116.473 153.136L117.37 109.501L86.4784 108.224H86.4648Z" fill="url(#paint6_linear_5415_71437)"/>
<path d="M117.358 109.487L116.461 153.122L155.317 159.169L158.878 93.3027L117.344 109.487H117.358Z" fill="url(#paint7_linear_5415_71437)"/>
<path d="M66.3906 106.688L86.4642 108.21V145.757C80.1173 144.235 73.7704 142.727 67.4099 141.205L66.3906 106.675V106.688Z" fill="url(#paint8_linear_5415_71437)"/>
<path d="M218.647 95.8574L188.897 101.905L184.113 167.839L207.245 161.982L209.854 141.34L218.647 95.8574Z" fill="url(#paint9_linear_5415_71437)"/>
<path d="M109.12 152.429C92.8927 150.187 80.1989 148.434 63.9171 142.808C52.7047 138.935 48.6683 136.299 28.9888 128.811C18.7413 124.911 10.1656 121.949 4.19922 119.951C4.36231 120.848 4.539 121.731 4.71568 122.615C4.81081 123.09 4.94672 123.566 5.05544 124.041C14.4195 130.347 27.1133 137.767 42.9873 144.085C66.1732 153.326 85.8527 156.139 92.2947 156.968C107.843 158.979 133.543 160.433 149.634 161.344C155.22 161.656 163.062 162.716 172.643 166.344C179.819 169.062 185.677 172.487 190.257 175.68C190.352 175.599 190.461 175.531 190.556 175.449C192.54 173.791 194.47 172.079 196.305 170.38L196.468 170.204C188.191 166.209 175.294 160.841 158.794 157.471C140.501 153.734 135.323 156.044 109.106 152.429H109.12Z" fill="url(#paint10_linear_5415_71437)"/>
<path d="M113.43 204.393C127.496 204.393 141.264 201.988 154.324 197.259C167.154 192.109 179.25 184.839 190.272 175.68C185.692 172.473 179.834 169.062 172.658 166.344C163.063 162.716 155.235 161.656 149.649 161.343C133.558 160.433 107.857 158.979 92.3096 156.967C85.8675 156.139 66.1881 153.326 43.0022 144.085C27.1282 137.752 14.4344 130.346 5.07031 124.041C15.6439 170.692 60.9557 204.393 113.443 204.393H113.43Z" fill="url(#paint11_linear_5415_71437)"/>
<path d="M82.0625 144.14H104.419L116.461 148.733L147.421 135.171H179.141L185.828 139.765L207.234 128.676" stroke="#FCFEBF" stroke-width="0.300563" stroke-linecap="round" stroke-linejoin="round"/>
<path d="M127.429 103.44L115.577 125.604L93.9136 127.167L82.0625 144.14" stroke="#FCFEBF" stroke-width="0.300563" stroke-linecap="round" stroke-linejoin="round"/>
<path d="M40.3242 135.049C40.5281 135.498 45.7198 146.247 56.7827 147.089C62.1918 147.497 71.2433 145.717 73.9614 138.229C76.7611 130.551 71.2161 121.446 64.8556 119.816C60.0988 118.593 55.5867 121.732 50.2863 125.414C45.448 128.771 42.2541 132.481 40.3378 135.035L40.3242 135.049Z" fill="#FFF5DC"/>
<path d="M40.8274 135.13L40.9633 135.103C41.0585 135.089 40.9905 134.926 41.0721 135.103C41.1536 135.306 41.507 135.836 41.6021 136.04C44.3067 140.43 48.3975 144.275 53.4533 145.634C58.7265 146.952 65.1006 145.974 69.3137 142.617C76.7615 136.774 72.8881 123.321 64.1764 120.956C58.5362 119.815 53.6028 124.15 49.0363 127.153C46.1278 129.327 43.5184 131.95 41.2216 134.776C41.0585 134.994 41.0041 135.007 40.8139 135.13H40.8274ZM39.7266 135.13C42.9884 128.417 56.8374 116.472 64.7336 118.524C73.2822 120.698 78.3108 131.379 74.8995 139.438C71.3659 147.713 60.7787 150.01 52.8417 147.781C46.7802 145.96 41.9011 141 39.7266 135.13Z" fill="#2C1609"/>
<path d="M61.2952 128.825C60.303 125.672 61.1457 119.584 65.5627 119.978C65.6714 119.978 65.7393 120.101 65.7122 120.209C65.2501 122.166 64.5841 123.049 63.3202 124.354C62.4776 125.604 61.8252 127.112 61.5534 128.811C61.5398 128.947 61.3224 128.974 61.2816 128.838L61.2952 128.825Z" fill="#2C1609"/>
<path d="M214.557 128.553C220.469 131.04 222.725 138.147 222.562 143.311C222.345 150.173 217.71 157.457 211.322 158.735C208.455 159.319 203.263 159.074 201.483 155.582C200.015 152.701 201.768 149.317 202.067 148.747C201.754 148.556 199.24 147.007 198.846 143.963C198.533 141.504 199.729 139.017 201.904 137.603C201.306 136.394 200.192 133.676 201.279 131.285C203.114 127.289 210.058 126.651 214.557 128.54V128.553Z" fill="#FCF0D8"/>
<path d="M208.739 138.27C206.755 138.623 204.907 138.65 202.841 138.365C202.311 138.27 201.658 138.038 201.156 137.59C199.035 135.538 199.266 131.842 201.101 129.722C204.839 125.944 210.955 125.835 215.657 127.629C221.678 129.926 224.219 137.006 223.893 142.863C223.608 148.787 221.148 155.202 215.861 158.436C210.751 161.33 201.522 160.678 199.824 154.087C198.709 149.032 204.078 146.287 208.291 147.782C208.576 147.863 208.739 148.176 208.658 148.461C208.576 148.733 208.304 148.883 208.033 148.842C204.866 148.149 200.707 149.997 201.713 153.68C203.276 158.64 210.805 158.558 214.597 156.289C217.546 154.509 219.326 151.234 220.319 147.972C222.955 139.506 219.992 128.92 209.65 128.934C206.633 128.934 202.406 129.668 201.754 133.119C201.563 134.451 201.672 136.285 203.221 136.625C204.852 136.979 206.823 137.142 208.562 137.033C209.351 136.979 209.487 138.147 208.726 138.283L208.739 138.27Z" fill="#2C1609"/>
<path d="M203.89 138.229C200.996 139.656 198.726 142.999 200.737 146.043C201.322 147.008 202.314 147.592 203.347 148.38C203.768 148.679 203.551 149.399 203.034 149.413C197.571 149.263 195.274 142.224 199.446 138.691C200.615 137.658 202.083 136.843 203.632 136.992C204.271 137.033 204.434 137.93 203.89 138.229Z" fill="#2C1609"/>
<path d="M197.556 169.021C197.433 169.171 197.297 169.334 197.162 169.484C197.039 169.619 196.917 169.755 196.795 169.891L196.482 170.217L196.319 170.394C194.484 172.106 192.554 173.805 190.57 175.463C190.475 175.544 190.366 175.612 190.271 175.694C179.262 184.853 167.153 192.123 154.323 197.273C141.263 202.002 127.509 204.408 113.429 204.408C60.9275 204.408 15.6294 170.693 5.05577 124.055C4.94705 123.579 4.82473 123.104 4.716 122.628C4.52573 121.745 4.36264 120.862 4.19955 119.965C4.15878 119.72 4.10439 119.476 4.05003 119.231C3.16663 114.053 2.71816 108.781 2.71816 103.563C2.71816 47.956 52.3789 2.71782 113.429 2.71782C174.478 2.71782 224.139 47.956 224.139 103.563C224.139 117.424 220.062 130.605 220.062 130.605C219.912 131.121 219.736 131.597 219.573 132.1C220.266 132.766 220.864 133.948 221.312 135.443C224.941 125.224 226.857 114.488 226.857 103.563C226.857 46.4612 175.973 0 113.429 0C50.8839 0 0 46.4612 0 103.563C0 108.93 0.462058 114.366 1.37264 119.693C1.5765 120.862 1.80755 122.03 2.05218 123.185C12.2725 171.821 59.1199 207.125 113.429 207.125C127.821 207.125 141.888 204.666 155.288 199.814C168.539 194.501 180.988 187 192.296 177.555C194.321 175.87 196.292 174.131 198.208 172.337L198.752 171.766C199.282 171.209 199.825 170.639 200.369 170.041C200.913 169.443 201.443 168.858 201.945 168.274C201.198 168.383 200.45 168.491 199.676 168.627C198.955 168.75 198.262 168.886 197.569 169.008L197.556 169.021Z" fill="#2C1609"/>
<path d="M202.637 67.1442C203.507 65.2825 207.203 57.9172 215.059 55.7565C219.979 54.3976 226.76 55.0363 227.671 57.7813C228.609 60.5806 223.308 65.1466 218.687 67.1442C211.77 70.1474 204.988 68.0139 202.637 67.1442Z" fill="url(#paint12_linear_5415_71437)"/>
<path d="M189.836 57.7812C190.597 56.5718 195.789 48.0242 192.133 39.8164C190.244 35.5766 185.705 30.7525 182.388 31.7445C178.936 32.7772 177.822 39.8028 178.828 44.7628C180.513 53.1066 188.491 57.1153 189.85 57.7812H189.836Z" fill="url(#paint13_linear_5415_71437)"/>
<path d="M198.25 57.7808C198.576 54.1797 200.329 38.4842 210.998 33.3204C211.352 33.1573 218.324 29.8551 221.001 32.5594C223.706 35.2908 220.226 42.3843 219.791 43.2676C214.912 53.1877 203.211 56.6393 198.264 57.7944L198.25 57.7808Z" fill="url(#paint14_linear_5415_71437)"/>
<defs>
<linearGradient id="paint0_linear_5415_71437" x1="220.309" y1="145.702" x2="24.6678" y2="31.4513" gradientUnits="userSpaceOnUse">
<stop stop-color="#649657"/>
<stop offset="1" stop-color="#162113"/>
</linearGradient>
<linearGradient id="paint1_linear_5415_71437" x1="37.1717" y1="79.7272" x2="109.882" y2="79.7272" gradientUnits="userSpaceOnUse">
<stop stop-color="#761F00"/>
<stop offset="1" stop-color="#EB3F00"/>
</linearGradient>
<linearGradient id="paint2_linear_5415_71437" x1="169.205" y1="90.4081" x2="169.287" y2="79.333" gradientUnits="userSpaceOnUse">
<stop stop-color="#FFCDC0"/>
<stop offset="0.07" stop-color="#FFCFC0"/>
<stop offset="0.56" stop-color="#FFDDC0"/>
<stop offset="1" stop-color="#FFE2C0"/>
</linearGradient>
<linearGradient id="paint3_linear_5415_71437" x1="122.074" y1="25.6699" x2="146.606" y2="25.6699" gradientUnits="userSpaceOnUse">
<stop stop-color="#FF753F"/>
<stop offset="1" stop-color="#CD3700"/>
</linearGradient>
<linearGradient id="paint4_linear_5415_71437" x1="46.535" y1="55.7566" x2="69.0142" y2="55.7566" gradientUnits="userSpaceOnUse">
<stop stop-color="#FF753F"/>
<stop offset="1" stop-color="#CD3700"/>
</linearGradient>
<linearGradient id="paint5_linear_5415_71437" x1="169.802" y1="173.139" x2="173.743" y2="100.491" gradientUnits="userSpaceOnUse">
<stop stop-color="#97E200"/>
<stop offset="0.03" stop-color="#96E106"/>
<stop offset="0.24" stop-color="#92DA2F"/>
<stop offset="0.45" stop-color="#8FD64F"/>
<stop offset="0.65" stop-color="#8DD266"/>
<stop offset="0.84" stop-color="#8CD074"/>
<stop offset="1" stop-color="#8CD079"/>
</linearGradient>
<linearGradient id="paint6_linear_5415_71437" x1="101.496" y1="166.956" x2="102.026" y2="92.6233" gradientUnits="userSpaceOnUse">
<stop stop-color="#97E200"/>
<stop offset="0.03" stop-color="#96E106"/>
<stop offset="0.24" stop-color="#92DA2F"/>
<stop offset="0.45" stop-color="#8FD64F"/>
<stop offset="0.65" stop-color="#8DD266"/>
<stop offset="0.84" stop-color="#8CD074"/>
<stop offset="1" stop-color="#8CD079"/>
</linearGradient>
<linearGradient id="paint7_linear_5415_71437" x1="139.158" y1="165.176" x2="136.685" y2="94.5257" gradientUnits="userSpaceOnUse">
<stop stop-color="#97E200"/>
<stop offset="1" stop-color="#5C8A00"/>
</linearGradient>
<linearGradient id="paint8_linear_5415_71437" x1="75.9314" y1="144.887" x2="77.2901" y2="94.1728" gradientUnits="userSpaceOnUse">
<stop stop-color="#97E200"/>
<stop offset="1" stop-color="#5C8A00"/>
</linearGradient>
<linearGradient id="paint9_linear_5415_71437" x1="199.919" y1="160.311" x2="203.737" y2="86.1547" gradientUnits="userSpaceOnUse">
<stop stop-color="#97E200"/>
<stop offset="1" stop-color="#5C8A00"/>
</linearGradient>
<linearGradient id="paint10_linear_5415_71437" x1="2.69064" y1="147.822" x2="197.746" y2="147.822" gradientUnits="userSpaceOnUse">
<stop stop-color="#73B463"/>
<stop offset="1" stop-color="#70A800"/>
</linearGradient>
<linearGradient id="paint11_linear_5415_71437" x1="99.9476" y1="136.312" x2="87.053" y2="213.023" gradientUnits="userSpaceOnUse">
<stop stop-color="#649657"/>
<stop offset="0.21" stop-color="#46683C"/>
<stop offset="1" stop-color="#162113"/>
</linearGradient>
<linearGradient id="paint12_linear_5415_71437" x1="204.798" y1="66.7229" x2="237.931" y2="52.0028" gradientUnits="userSpaceOnUse">
<stop stop-color="#CD3700"/>
<stop offset="0.76" stop-color="#5C8A00"/>
</linearGradient>
<linearGradient id="paint13_linear_5415_71437" x1="190.706" y1="66.3559" x2="183.002" y2="29.7057" gradientUnits="userSpaceOnUse">
<stop stop-color="#CD3700"/>
<stop offset="0.97" stop-color="#5C8A00"/>
</linearGradient>
<linearGradient id="paint14_linear_5415_71437" x1="191.822" y1="65.7848" x2="225.196" y2="25.8831" gradientUnits="userSpaceOnUse">
<stop stop-color="#CD3700"/>
<stop offset="0.74" stop-color="#5C8A00"/>
</linearGradient>
</defs>
</svg>
