<svg width="80" height="80" viewBox="0 0 80 80" fill="none" xmlns="http://www.w3.org/2000/svg">
<path d="M40 80.0002C62.0914 80.0002 80 62.0915 80 40.0001C80 17.9087 62.0914 0 40 0C17.9086 0 0 17.9087 0 40.0001C0 62.0915 17.9086 80.0002 40 80.0002Z" fill="#162113"/>
<path d="M25.4067 24.3903L25.4117 24.3856C25.4149 24.3822 25.4196 24.3766 25.4257 24.3702C25.4377 24.3574 25.4557 24.339 25.4785 24.3145C25.5243 24.2653 25.5912 24.193 25.6758 24.1003C25.8452 23.9148 26.0861 23.6461 26.3749 23.3142C26.952 22.651 27.7215 21.7304 28.4888 20.7032C29.2546 19.6779 30.0268 18.5355 30.602 17.43C31.1654 16.3475 31.5756 15.2324 31.549 14.2721L31.5499 14.2711C31.5499 12.4427 30.9281 10.7931 29.7909 9.59738C28.6507 8.39856 27.0202 7.68596 25.0645 7.68591C21.2359 7.68591 18.4676 10.5707 18.4676 14.2718C18.4677 15.2294 18.8981 16.3457 19.4761 17.4334C20.0625 18.5371 20.8384 19.6787 21.6057 20.7036C22.3743 21.7301 23.1416 22.6502 23.7163 23.3132C24.0039 23.645 24.2446 23.9131 24.4129 24.0986C24.4971 24.1913 24.5627 24.264 24.6082 24.3131C24.6309 24.3376 24.6489 24.356 24.6609 24.3688C24.6668 24.3751 24.6712 24.3803 24.6743 24.3837L24.6791 24.3887L24.6791 24.3897L24.6801 24.3897L25.0422 24.7753L25.4067 24.3903Z" fill="#E73D00" stroke="#E73D00"/>
<path fill-rule="evenodd" clip-rule="evenodd" d="M27.769 31.9989C27.9834 31.8256 28.9538 31.9062 28.9538 31.9062C28.9538 31.9062 28.7988 36.6462 28.9343 39.0321C28.956 39.4139 29.3851 39.795 29.7666 39.8217C31.6424 39.9534 40.1892 39.8217 40.1892 39.8217C44.3332 39.8217 47.4412 38.7997 49.5132 36.7557C51.5852 34.7117 52.6212 31.9817 52.6212 28.5657C52.6212 25.0937 51.5992 22.4057 49.5552 20.5017C47.5112 18.5977 44.3892 17.6457 40.1892 17.6457H33.7898C34.4175 16.4551 34.8397 15.3019 34.8092 14.3869C34.8092 13.2693 34.5621 12.2339 34.1024 11.3457H40.1892C44.6132 11.3457 48.3512 12.1017 51.4032 13.6137C54.4552 15.1257 56.7372 17.1697 58.2492 19.7457C59.7612 22.3217 60.5172 25.2617 60.5172 28.5657C60.5172 32.5977 59.3552 36.1537 57.0312 39.2337C54.7072 42.3138 51.2212 44.3578 46.5732 45.3658C46.5732 45.3658 58.6175 65.2965 60.9925 69.3845C61.0824 69.5392 61.0019 69.8938 60.823 69.8938C59.2689 69.8938 54.0826 69.8938 52.5286 69.8938C52.2709 69.8938 52.0085 69.7006 51.8761 69.4797C49.4835 65.4897 38.1732 45.9538 38.1732 45.9538H28.9332C28.9332 45.9538 29.0155 65.3864 28.9332 69.3764C28.9283 69.6149 28.6774 69.8938 28.4389 69.8938C27.2398 69.8938 22.9564 69.8938 21.7574 69.8938C21.5113 69.8938 21.2882 69.6951 21.2864 69.3254C21.2645 64.9166 21.2892 31.9009 21.2892 31.9009C21.2892 31.9009 22.3842 31.9388 22.6092 32.1319C23.2292 32.6642 24.1492 35.1168 25.0092 35.0946C25.8691 35.0725 27.1116 32.5303 27.769 31.9989Z" fill="#ECE2CE"/>
</svg>
