<svg width="45" height="45" viewBox="0 0 45 45" fill="none" xmlns="http://www.w3.org/2000/svg">
<path d="M16.875 18.75C16.875 17.6375 17.2049 16.5499 17.823 15.6249C18.4411 14.6999 19.3196 13.9789 20.3474 13.5532C21.3752 13.1274 22.5062 13.016 23.5974 13.2331C24.6885 13.4501 25.6908 13.9859 26.4775 14.7725C27.2641 15.5592 27.7999 16.5615 28.0169 17.6526C28.234 18.7438 28.1226 19.8748 27.6968 20.9026C27.2711 21.9304 26.5501 22.8089 25.6251 23.427C24.7001 24.0451 23.6125 24.375 22.5 24.375V26.25M39.375 22.5C39.375 31.8198 31.8198 39.375 22.5 39.375C13.1802 39.375 5.625 31.8198 5.625 22.5C5.625 13.1802 13.1802 5.625 22.5 5.625C31.8198 5.625 39.375 13.1802 39.375 22.5Z" stroke="#777777" stroke-width="2" stroke-linecap="round" stroke-linejoin="round"/>
<circle cx="22.5" cy="31.875" r="1.875" fill="#777777"/>
</svg>
