<svg width="35" height="39" viewBox="0 0 35 39" fill="none" xmlns="http://www.w3.org/2000/svg">
<g clip-path="url(#clip0_5415_71416)">
<path d="M17.0585 11.2392C12.2167 11.2392 8.31123 15.1446 8.31123 19.9864C8.31123 24.8283 12.2167 28.7337 17.0585 28.7337C21.9003 28.7337 25.8058 24.8283 25.8058 19.9864C25.8058 15.1446 21.9003 11.2392 17.0585 11.2392ZM17.0585 25.6733C13.9296 25.6733 11.3716 23.123 11.3716 19.9864C11.3716 16.8499 13.922 14.2996 17.0585 14.2996C20.195 14.2996 22.7454 16.8499 22.7454 19.9864C22.7454 23.123 20.1874 25.6733 17.0585 25.6733ZM28.2038 10.8814C28.2038 12.0157 27.2903 12.9216 26.1636 12.9216C25.0292 12.9216 24.1233 12.0081 24.1233 10.8814C24.1233 9.75464 25.0369 8.84108 26.1636 8.84108C27.2903 8.84108 28.2038 9.75464 28.2038 10.8814ZM33.9973 12.9521C33.8679 10.219 33.2436 7.79811 31.2414 5.80352C29.2468 3.80893 26.8259 3.18467 24.0928 3.04764C21.2761 2.88777 12.8333 2.88777 10.0165 3.04764C7.29109 3.17706 4.87018 3.80132 2.86798 5.79591C0.865772 7.7905 0.249124 10.2114 0.112091 12.9445C-0.0477804 15.7612 -0.0477804 24.204 0.112091 27.0208C0.241511 29.7538 0.865772 32.1747 2.86798 34.1693C4.87018 36.1639 7.28348 36.7882 10.0165 36.9252C12.8333 37.0851 21.2761 37.0851 24.0928 36.9252C26.8259 36.7958 29.2468 36.1715 31.2414 34.1693C33.236 32.1747 33.8603 29.7538 33.9973 27.0208C34.1572 24.204 34.1572 15.7689 33.9973 12.9521ZM30.3583 30.0431C29.7645 31.5353 28.6149 32.6848 27.1152 33.2862C24.8694 34.1769 19.5403 33.9714 17.0585 33.9714C14.5767 33.9714 9.24001 34.1693 7.0018 33.2862C5.50967 32.6924 4.36011 31.5429 3.75869 30.0431C2.86798 27.7973 3.07352 22.4682 3.07352 19.9864C3.07352 17.5046 2.87559 12.1679 3.75869 9.92974C4.3525 8.4376 5.50205 7.28804 7.0018 6.68662C9.24762 5.79591 14.5767 6.00146 17.0585 6.00146C19.5403 6.00146 24.877 5.80352 27.1152 6.68662C28.6073 7.28043 29.7569 8.42999 30.3583 9.92974C31.249 12.1756 31.0435 17.5046 31.0435 19.9864C31.0435 22.4682 31.249 27.8049 30.3583 30.0431Z" fill="#223300"/>
</g>
<defs>
<clipPath id="clip0_5415_71416">
<rect width="34.125" height="39" fill="white"/>
</clipPath>
</defs>
</svg>
