<svg width="32" height="32" viewBox="0 0 32 32" fill="none" xmlns="http://www.w3.org/2000/svg">
<path d="M26.0494 4.96409C24.316 6.31876 22.7574 6.62543 21.2574 6.46276C19.684 6.29343 18.1347 5.60943 16.4067 4.83876L16.336 4.80676C14.6894 4.07076 12.8694 3.25743 10.9547 3.05076C8.94003 2.83343 6.86136 3.28543 4.71603 4.96276C4.59639 5.05632 4.49962 5.17591 4.43309 5.31244C4.36655 5.44898 4.33199 5.59888 4.33203 5.75076V28.0001C4.33203 28.2653 4.43739 28.5197 4.62492 28.7072C4.81246 28.8947 5.06681 29.0001 5.33203 29.0001C5.59725 29.0001 5.8516 28.8947 6.03914 28.7072C6.22667 28.5197 6.33203 28.2653 6.33203 28.0001V21.4188C7.91336 20.3054 9.3507 20.0548 10.74 20.2054C12.3134 20.3734 13.8627 21.0574 15.5907 21.8294L15.6614 21.8601C17.308 22.5974 19.128 23.4094 21.0427 23.6161C23.0574 23.8334 25.136 23.3814 27.2814 21.7041C27.401 21.6105 27.4978 21.4909 27.5643 21.3544C27.6308 21.2179 27.6654 21.068 27.6654 20.9161V5.75076C27.6652 5.56343 27.6123 5.37992 27.5129 5.22114C27.4135 5.06237 27.2715 4.93471 27.1031 4.85271C26.9346 4.77072 26.7465 4.73769 26.5602 4.75738C26.374 4.77707 26.1969 4.8487 26.0494 4.96409Z" fill="#223300"/>
</svg>
