<svg width="32" height="32" viewBox="0 0 32 32" fill="none" xmlns="http://www.w3.org/2000/svg">
<path d="M15.9358 29.6673L4.14844 22.9167L4.1851 9.11665L15.9358 2.33398L27.8098 9.15332L27.8464 22.9907L15.9358 29.6673Z" stroke="#223300" stroke-width="0.8" stroke-linecap="round" stroke-linejoin="round"/>
<path d="M8.94922 25.6623L8.95655 19.5496L22.8632 19.543V25.7836" stroke="#223300" stroke-width="0.8" stroke-linecap="round" stroke-linejoin="round"/>
<path d="M15.5744 19.5484V8.14844H26.0624M4.17578 12.9764H15.5744" stroke="#223300" stroke-width="0.8" stroke-linecap="round" stroke-linejoin="round"/>
<path d="M19.0285 14.3328H21.2172V16.5221H19.0285V14.3328ZM22.7592 14.3328H24.9479V16.5221H22.7592V14.3328ZM22.7592 10.8281H24.9479V13.0168H22.7592V10.8281ZM19.0285 10.8281H21.2172V13.0168H19.0285V10.8281ZM16.6752 22.4828H18.8652V24.6715H16.6765L16.6752 22.4828ZM12.9445 22.4828H15.1332V24.6715H12.9452L12.9445 22.4828ZM10.5985 15.1435H12.7872V17.3328H10.5985V15.1435ZM6.86719 15.1435H9.05585V17.3328H6.86719V15.1435Z" stroke="#223300" stroke-width="0.6" stroke-linecap="round" stroke-linejoin="round"/>
</svg>
