<svg width="39" height="39" viewBox="0 0 39 39" fill="none" xmlns="http://www.w3.org/2000/svg">
<path fill-rule="evenodd" clip-rule="evenodd" d="M11.7574 30.325C12.5296 30.7325 13.3898 30.9452 14.2629 30.9449C17.1712 30.9449 19.5454 28.6314 19.6526 25.7481L19.6633 0H26.0874C26.088 0.546882 26.1389 1.09255 26.2393 1.63014H21.5356V1.63103H27.9605C27.9596 3.78595 28.7406 5.86801 30.1588 7.49058L30.1606 7.49266C31.6071 8.43765 33.298 8.9401 35.0259 8.93847V10.3693C35.6306 10.4988 36.2559 10.5678 36.899 10.5678V16.9936C33.6917 16.9973 30.5645 15.9917 27.9606 14.1192V27.1755C27.9606 33.6951 22.6557 39 16.1351 39C14.5113 39.0004 12.9049 38.6654 11.4166 38.016C9.92932 37.3671 8.59211 36.4182 7.48843 35.2287L7.48601 35.227C4.43653 33.086 2.4375 29.5452 2.4375 25.5453C2.4375 19.0248 7.74236 13.7191 14.2629 13.7191C14.7961 13.7216 15.3285 13.7604 15.8564 13.8352V15.3563C15.8936 15.3556 15.9304 15.3543 15.9675 15.3531C16.0231 15.3511 16.0788 15.3492 16.1351 15.3492C16.6683 15.3517 17.2007 15.3905 17.7286 15.4653V22.0243C17.2248 21.8662 16.6916 21.7741 16.1351 21.7741C14.7032 21.7758 13.3304 22.3455 12.3179 23.3581C11.3054 24.3707 10.736 25.7436 10.7347 27.1754C10.7347 28.3064 11.0922 29.4085 11.756 30.3243L11.7574 30.325ZM5.08973 31.3948C5.63855 32.8247 6.45759 34.1218 7.4834 35.2242C6.43671 34.1041 5.62847 32.8014 5.08973 31.3948Z" fill="#223300"/>
</svg>
