<svg width="39" height="39" viewBox="0 0 39 39" fill="none" xmlns="http://www.w3.org/2000/svg">
<g clip-path="url(#clip0_5415_71417)">
<path d="M34.9911 11.5561C35.0158 11.9025 35.0158 12.249 35.0158 12.5955C35.0158 23.162 26.9734 35.3372 12.2741 35.3372C7.74554 35.3372 3.53872 34.0256 0 31.749C0.643424 31.8232 1.26202 31.848 1.9302 31.848C5.66681 31.848 9.10658 30.586 11.8534 28.4331C8.33945 28.3588 5.39464 26.0574 4.38004 22.8899C4.875 22.9641 5.36989 23.0136 5.88961 23.0136C6.60723 23.0136 7.32492 22.9146 7.99302 22.7414C4.3306 21.999 1.58369 18.782 1.58369 14.8969V14.7979C2.64773 15.3918 3.88515 15.763 5.1966 15.8124C3.04368 14.3771 1.6332 11.9273 1.6332 9.1557C1.6332 7.67096 2.02907 6.30992 2.722 5.1221C6.65666 9.97234 12.571 13.1398 19.2029 13.4863C19.0792 12.8924 19.005 12.2738 19.005 11.6551C19.005 7.25026 22.5684 3.66211 26.998 3.66211C29.2994 3.66211 31.378 4.62721 32.8381 6.18622C34.6445 5.83979 36.3767 5.17161 37.9111 4.25602C37.3171 6.11203 36.055 7.67104 34.3971 8.66081C36.0056 8.48767 37.5646 8.04214 38.9999 7.42355C37.9112 9.00724 36.5501 10.4177 34.9911 11.5561Z" fill="#223300"/>
</g>
<defs>
<clipPath id="clip0_5415_71417">
<rect width="39" height="39" fill="white"/>
</clipPath>
</defs>
</svg>
