<svg width="39" height="39" viewBox="0 0 39 39" fill="none" xmlns="http://www.w3.org/2000/svg">
<g clip-path="url(#clip0_5415_71419)">
<path d="M17.0597 37.5528C19.0027 37.8756 20.9855 37.877 22.9289 37.5566M17.0597 37.5528C12.8863 36.8561 9.09333 34.7017 6.35903 31.4727C3.62473 28.2437 2.12443 24.1495 2.125 19.9183C2.1257 16.508 3.10187 13.1691 4.93831 10.2956C6.77475 7.42205 9.39483 5.13376 12.4894 3.70074C15.5839 2.26773 19.0238 1.74978 22.4031 2.20803C25.7825 2.66628 28.9602 4.0816 31.5614 6.28697C34.1625 8.49235 36.0786 11.3958 37.0834 14.6546C38.0883 17.9134 38.14 21.3917 37.2325 24.679C36.325 27.9663 34.4962 30.9254 31.9617 33.2071C29.4273 35.4889 26.2931 36.9981 22.9289 37.5566M17.0597 37.5528L17.0578 27.8804H13.3917C13.0842 27.8804 12.7893 27.7582 12.5718 27.5408C12.3544 27.3233 12.2322 27.0284 12.2322 26.7208V23.1688C12.2322 22.8613 12.3544 22.5664 12.5718 22.3489C12.7893 22.1315 13.0842 22.0093 13.3917 22.0093H17.0578V15.9566C17.0578 14.4189 17.6686 12.9443 18.7559 11.857C19.8431 10.7697 21.3178 10.1589 22.8554 10.1589H26.3533C26.8659 10.1589 27.3574 10.3625 27.7199 10.7249C28.0823 11.0874 28.2859 11.5789 28.2859 12.0915V14.1013C28.2859 14.6139 28.0823 15.1054 27.7199 15.4678C27.3574 15.8303 26.8659 16.0339 26.3533 16.0339H24.8614C24.3489 16.0339 23.8573 16.2375 23.4949 16.5999C23.1325 16.9623 22.9289 17.4539 22.9289 17.9664V22.0093H27.3679C27.5362 22.0093 27.7025 22.0459 27.8552 22.1166C28.008 22.1873 28.1435 22.2905 28.2523 22.4188C28.3612 22.5472 28.4408 22.6977 28.4857 22.8599C28.5305 23.0221 28.5395 23.1922 28.512 23.3582L28.0289 26.2648C27.9538 26.716 27.7212 27.126 27.3723 27.4219C27.0233 27.7177 26.5808 27.8802 26.1234 27.8804H22.9289V37.5566" stroke="#223300" stroke-width="2.4375" stroke-linecap="round"/>
</g>
<defs>
<clipPath id="clip0_5415_71419">
<rect width="39" height="39" fill="white"/>
</clipPath>
</defs>
</svg>
