<svg width="32" height="32" viewBox="0 0 32 32" fill="none" xmlns="http://www.w3.org/2000/svg">
<circle cx="15.9987" cy="20.0007" r="2.66667" fill="#777777"/>
<path d="M6 16.666C6 14.7804 6 13.8376 6.58579 13.2518C7.17157 12.666 8.11438 12.666 10 12.666H22C23.8856 12.666 24.8284 12.666 25.4142 13.2518C26 13.8376 26 14.7804 26 16.666V21.3327C26 24.1611 26 25.5753 25.1213 26.454C24.2426 27.3327 22.8284 27.3327 20 27.3327H12C9.17157 27.3327 7.75736 27.3327 6.87868 26.454C6 25.5753 6 24.1611 6 21.3327V16.666Z" stroke="#777777" stroke-width="1.5"/>
<path d="M22 12.666V10.666C22 9.73701 22 9.27251 21.9384 8.88384C21.5996 6.74438 19.9216 5.06643 17.7822 4.72757C17.3935 4.66602 16.929 4.66602 16 4.66602C15.071 4.66602 14.6065 4.66602 14.2178 4.72757C12.0784 5.06643 10.4004 6.74438 10.0616 8.88384C10 9.27251 10 9.73701 10 10.666V12.666" stroke="#777777" stroke-width="1.5" stroke-linecap="round"/>
</svg>
