<svg width="48" height="48" viewBox="0 0 48 48" fill="none" xmlns="http://www.w3.org/2000/svg">
<path d="M8.5 12H12.5V18H32.5V12H36.5V22H40.5V12C40.5 9.8 38.7 8 36.5 8H28.14C27.3 5.68 25.1 4 22.5 4C19.9 4 17.7 5.68 16.86 8H8.5C6.3 8 4.5 9.8 4.5 12V40C4.5 42.2 6.3 44 8.5 44H20.5V40H8.5V12ZM22.5 8C23.6 8 24.5 8.9 24.5 10C24.5 11.1 23.6 12 22.5 12C21.4 12 20.5 11.1 20.5 10C20.5 8.9 21.4 8 22.5 8Z" fill="black"/>
<path d="M40.5 25L29.52 36L23.5 30L20.5 33L29.52 42L43.5 28L40.5 25Z" fill="black"/>
</svg>
