<svg width="162" height="31" viewBox="0 0 162 31" fill="none" xmlns="http://www.w3.org/2000/svg">
<path d="M45.4651 18.1958C45.4651 18.7061 45.4435 19.255 45.3966 19.8135C45.3857 19.976 45.3328 20.159 45.1969 20.2541C42.1481 20.5382 31.668 20.2228 28.576 20.3371C28.3294 20.3299 28.2705 20.6188 28.309 20.8427C28.3884 21.5661 28.5459 22.2354 28.7768 22.8432C29.7137 25.383 32.261 27.0044 34.9249 27.0477C37.6622 27.1825 40.0747 25.9054 41.097 23.4342C41.1932 23.2368 41.364 23.1189 41.566 23.1056C42.2239 23.0695 43.8403 23.0599 44.5306 23.0984C44.8542 23.0948 44.9804 23.4029 44.8542 23.6894C44.2636 25.4119 43.2366 26.8467 41.7801 27.989C39.9003 29.4864 37.5227 30.0895 35.0524 30.057C29.7233 30.081 25.4851 26.3436 24.7791 21.0449C24.3847 18.2656 24.7791 15.201 26.0684 12.9561C28.3715 8.63482 33.7571 7.15427 38.2779 8.34593C42.7447 9.50148 45.5337 13.576 45.4639 18.1705V18.1958H45.4651ZM41.5276 17.4254C41.7031 17.3773 41.8258 17.1449 41.7982 16.9439C41.7296 15.7691 41.4313 14.7713 40.8613 13.8721C38.5594 10.1924 32.4594 9.99138 29.8243 13.3509C29.4335 13.8276 29.1148 14.3632 28.8694 14.959C28.6301 15.5392 28.4569 16.1772 28.3559 16.8681C28.3114 17.0968 28.3451 17.4206 28.6036 17.4495C31.6873 17.4916 38.225 17.5373 41.5119 17.4314L41.5276 17.4254Z" fill="#FFFFEE"/>
<path d="M57.6427 30.0583C53.7412 30.139 49.2372 28.0108 49.0195 23.7654C49.0183 23.5451 49.1278 23.4248 49.3178 23.42C49.9841 23.3995 51.6522 23.3959 52.3209 23.42C52.5542 23.4139 52.6733 23.6318 52.7069 23.8593C52.8934 24.7922 53.4959 25.6119 54.3173 26.1632C56.1045 27.3717 59.4732 27.4198 61.0727 25.9886C62.3019 24.9848 62.4366 22.8711 61.0571 21.9683C60.0372 21.3388 59.1641 21.1016 57.8893 20.7128C56.3498 20.3024 54.5939 19.8402 53.2097 19.2552C51.7821 18.6593 50.4279 17.6181 49.8001 16.1641C48.5938 13.0224 50.1284 10.0192 53.2241 8.73006C56.2236 7.471 60.6133 7.65396 63.1486 9.90126C64.4029 11.0002 65.1209 12.4567 65.2929 14.261C65.317 14.4536 65.2617 14.6847 65.0416 14.6823C64.3765 14.7076 62.6855 14.7088 62.0144 14.6823C61.8112 14.6847 61.6969 14.4994 61.6789 14.3068C61.5057 12.3279 59.8232 11.1687 57.8796 11.0062C56.4617 10.8775 54.9259 11.0977 53.9637 11.8886C52.8068 12.7336 52.5951 14.5415 53.5705 15.602C54.6312 16.7262 56.1839 17.0657 57.6608 17.5279C59.045 17.9094 60.6326 18.3632 61.8256 18.858C63.24 19.4405 64.5797 20.4733 65.151 21.9322C65.7379 23.5475 65.5455 25.512 64.5833 26.9347C63.1125 29.1459 60.3656 30.074 57.668 30.0631H57.6427V30.0583Z" fill="#FFFFEE"/>
<path d="M90.01 18.1941C90.01 18.7249 89.986 19.2919 89.9367 19.8757C89.9282 20.0105 89.8934 20.1718 89.7911 20.2584C86.7616 20.5136 76.2238 20.238 73.1329 20.3379C72.8707 20.3295 72.807 20.6075 72.8539 20.8434C73.169 24.6579 76.344 27.2206 79.9942 27.0497C82.527 27.01 84.5944 25.7906 85.5818 23.5602C85.6732 23.2629 85.9209 23.0943 86.2192 23.104C86.9107 23.0811 88.4923 23.0703 89.1633 23.1016C89.452 23.0943 89.5278 23.3688 89.4255 23.618C88.8146 25.4596 87.6768 26.9991 86.0977 28.1655C82.8541 30.5561 77.7764 30.6716 74.2899 28.6795C68.9548 25.7449 67.882 17.9329 70.6169 12.958C72.92 8.63677 78.3056 7.15623 82.8265 8.34788C87.2932 9.50343 90.0822 13.5767 90.0124 18.1724V18.1953H90.01V18.1941ZM86.129 17.4201C86.2878 17.3756 86.3719 17.1397 86.3455 16.9579C86.2757 15.7723 85.9799 14.7744 85.4074 13.8704C84.1879 11.894 81.8415 10.9406 79.5684 10.9683C76.8335 10.9467 74.4029 12.4994 73.3951 14.9995C73.1582 15.5821 72.9898 16.2212 72.8912 16.9158C72.8371 17.1601 72.908 17.4346 73.1774 17.4478C76.2695 17.4695 82.8229 17.5297 86.1134 17.4274L86.129 17.4213V17.4201Z" fill="#FFFFEE"/>
<path d="M98.2733 11.6183C99.672 9.32891 101.827 7.99522 104.659 7.93142C104.892 7.90253 105.169 7.98077 105.149 8.25521C105.169 8.93651 105.163 10.6169 105.149 11.3066C105.185 11.5822 104.869 11.6147 104.639 11.5979C100.575 11.3319 98.1157 13.7501 98.2408 18.1002C98.2408 18.5805 98.2565 27.2832 98.2408 29.4246C98.254 29.5726 98.153 29.7303 97.9859 29.7159C97.328 29.7351 95.6948 29.7363 95.0153 29.7159C94.8553 29.7255 94.6905 29.616 94.6917 29.4499C94.6653 26.1084 94.6665 13.8199 94.6881 8.90401C94.6881 8.6729 94.6412 8.33827 94.9467 8.30818C95.5613 8.27808 97.174 8.28049 97.8584 8.30216C98.325 8.27808 98.248 8.79206 98.2528 9.12067C98.2817 9.89104 98.1891 10.8949 98.2661 11.6147L98.2721 11.6171L98.2733 11.6183Z" fill="#FFFFEE"/>
<path d="M117.139 26.1348C117.238 26.1782 117.339 26.0735 117.363 25.9748C118.683 22.6851 122.45 11.5521 123.895 8.42248C124.004 8.33822 124.129 8.31054 124.258 8.30332C124.92 8.27082 126.484 8.26961 127.157 8.30091C127.353 8.29489 127.576 8.45619 127.501 8.66563C126.079 12.385 120.876 25.6738 119.316 29.4546C119.147 29.7399 118.815 29.7182 118.513 29.7219C117.633 29.7423 116.112 29.7387 115.438 29.711C115.34 29.7074 115.249 29.693 115.162 29.634C113.379 25.9242 108.433 12.6691 106.84 8.73063C106.809 8.64637 106.809 8.50674 106.888 8.40924C106.949 8.33221 107.039 8.30572 107.132 8.29971C107.798 8.25878 109.411 8.2648 110.088 8.30211C110.225 8.30934 110.355 8.34304 110.471 8.43813C111.979 11.646 115.707 22.9077 117.13 26.1288L117.141 26.1336H117.139V26.1348Z" fill="#FFFFEE"/>
<path d="M132.944 4.84039C131.154 4.86567 130.009 2.93373 130.77 1.35569C131.948 -0.950589 135.342 -0.139297 135.296 2.47031C135.317 3.72336 134.223 4.87289 132.968 4.84039H132.944ZM134.451 8.34194C134.603 8.41295 134.68 8.60555 134.674 8.76203C134.7 11.7556 134.701 17.0278 134.698 20.6341C134.696 24.2476 134.686 27.6311 134.674 29.2357C134.692 29.4523 134.581 29.7364 134.318 29.7183C133.799 29.7484 132.727 29.7521 131.991 29.734C131.627 29.7232 131.112 29.7833 131.123 29.2838C131.202 25.4079 130.864 12.1432 131.25 8.38527C131.318 8.32268 131.403 8.30703 131.491 8.30221C132.22 8.28536 133.772 8.22638 134.436 8.33471L134.452 8.34194H134.451Z" fill="#FFFFEE"/>
<path d="M150.027 30.0568C146.241 30.0954 142.634 28.2104 140.825 24.8954C139.868 23.2259 139.398 21.1447 139.392 19.1008C139.217 12.9066 143.692 8.03644 149.84 7.96542C157.391 7.7307 162.085 13.9442 160.806 21.2771C159.951 26.5264 155.304 30.1459 150.051 30.0568H150.027ZM150.05 26.9344C153.665 26.9621 156.68 24.3983 157.231 20.7715C157.562 18.8179 157.327 16.3817 156.473 14.8096C154.064 9.86847 146.377 9.73847 143.934 14.7109C142.737 16.9534 142.698 20.798 143.867 23.1717C144.977 25.5658 147.41 26.9621 150.027 26.9344H150.05Z" fill="#FFFFEE"/>
<path d="M3.99902 0.795898C5.98284 0.795898 7.35214 2.30143 7.36133 4.18848L7.35742 4.39355C7.32221 4.87672 7.11753 5.38459 6.88184 5.83789C6.6026 6.37485 6.23227 6.92235 5.87109 7.40625C5.50804 7.89265 5.14482 8.3281 4.87305 8.64062C4.73688 8.79721 4.62227 8.92372 4.54199 9.01172C4.50202 9.05553 4.47022 9.08967 4.44824 9.11328C4.43734 9.125 4.4288 9.13429 4.42285 9.14062C4.41989 9.14378 4.41766 9.14669 4.41602 9.14844L4.41309 9.15137L3.98828 9.60059L3.56445 9.15039L3.98926 8.75C3.59957 9.1164 3.56721 9.14695 3.56445 9.14941H3.56348C3.563 9.14891 3.56234 9.14735 3.56152 9.14648C3.55992 9.14477 3.55748 9.14264 3.55469 9.13965C3.54879 9.13332 3.54022 9.12412 3.5293 9.1123C3.50753 9.08876 3.4762 9.05449 3.43652 9.01074C3.3568 8.92284 3.24291 8.79609 3.10742 8.63965C2.83689 8.32728 2.47475 7.89208 2.11133 7.40625C1.74967 6.92276 1.37778 6.37664 1.09375 5.8418C0.819479 5.32526 0.585084 4.74256 0.584961 4.20801C0.584961 2.35766 2.01565 0.79592 3.99902 0.795898Z" fill="#E73D00" stroke="#E73D00" stroke-width="1.16667"/>
<path fill-rule="evenodd" clip-rule="evenodd" d="M5.27533 10.9204C5.42567 10.8627 5.6662 10.8434 5.78045 10.8795C5.80812 10.965 5.78045 11.2551 5.78045 11.6944C5.76482 12.7838 5.74317 14.67 5.77805 15.5438C5.76362 15.8496 6.03422 16.1023 6.33128 16.0879C7.35716 16.1324 10.5406 16.0879 10.9628 16.0819C12.6321 16.0819 14.3447 15.7533 15.4884 14.5207C17.3333 12.6369 17.2528 8.60092 15.2431 6.98316C13.3405 5.39909 10.5418 5.84085 8.17017 5.77465C7.98856 5.77946 8.16175 5.57845 8.18821 5.47974C8.61756 4.63234 8.60073 3.80059 8.25556 2.98689C8.22549 2.90023 8.20384 2.85689 8.28202 2.84847C11.5425 2.78708 15.278 2.72449 17.8385 4.91882C21.9264 8.15796 21.159 15.6389 16.3279 17.8646C15.6821 18.2148 14.7512 18.4604 14.0043 18.6758C14.2497 19.0899 19.3803 27.5531 20.6479 29.733C20.7393 29.8931 20.6263 30.0917 20.4278 30.058H16.9593C16.4337 30.0953 16.3026 29.5452 16.0573 29.1865C14.3182 26.4505 10.3963 19.0249 9.92126 18.931C8.96393 18.9298 6.95306 18.9322 6.1593 18.931C5.95604 18.9383 5.86224 18.9154 5.78647 18.9407C5.77925 19.167 5.82616 27.1944 5.78647 29.68C5.78527 29.7787 5.7552 29.8847 5.67702 29.9581C5.60126 30.0327 5.49542 30.058 5.39199 30.0568H2.609C2.40936 30.0881 2.2049 29.8883 2.22655 29.7077C2.22655 27.2257 2.21573 14.9697 2.23016 10.8723C2.41658 10.8651 2.70642 10.9012 2.876 11.0228C3.21395 11.3165 3.76958 12.1085 3.91631 12.289C3.95961 12.3492 3.98125 12.3203 4.02455 12.2698C4.39257 11.8605 4.81471 11.2587 5.25729 10.9301L5.27653 10.9216H5.27533V10.9204Z" fill="#FFFFEE"/>
</svg>
