<svg width="91" height="15" viewBox="0 0 91 15" fill="none" xmlns="http://www.w3.org/2000/svg">
<path d="M90.2071 8.07039C90.5976 7.67986 90.5976 7.0467 90.2071 6.65617L83.8431 0.292213C83.4526 -0.0983109 82.8195 -0.0983109 82.4289 0.292213C82.0384 0.682738 82.0384 1.3159 82.4289 1.70643L88.0858 7.36328L82.4289 13.0201C82.0384 13.4107 82.0384 14.0438 82.4289 14.4343C82.8195 14.8249 83.4526 14.8249 83.8431 14.4343L90.2071 8.07039ZM0 7.36328V8.36328H8.95V7.36328V6.36328H0V7.36328ZM13.425 7.36328V8.36328H31.325V7.36328V6.36328H13.425V7.36328ZM35.8 7.36328V8.36328H53.7V7.36328V6.36328H35.8V7.36328ZM58.175 7.36328V8.36328H76.075V7.36328V6.36328H58.175V7.36328ZM80.55 7.36328V8.36328H89.5V7.36328V6.36328H80.55V7.36328Z" fill="black"/>
</svg>
