<svg width="91" height="15" viewBox="0 0 91 15" fill="none" xmlns="http://www.w3.org/2000/svg">
<path d="M90.2071 8.07039C90.5976 7.67986 90.5976 7.0467 90.2071 6.65617L83.8431 0.292213C83.4526 -0.0983109 82.8195 -0.0983109 82.4289 0.292213C82.0384 0.682738 82.0384 1.3159 82.4289 1.70643L88.0858 7.36328L82.4289 13.0201C82.0384 13.4107 82.0384 14.0438 82.4289 14.4343C82.8195 14.8249 83.4526 14.8249 83.8431 14.4343L90.2071 8.07039ZM8.95 8.36328C9.50229 8.36328 9.95 7.91557 9.95 7.36328C9.95 6.811 9.50229 6.36328 8.95 6.36328V7.36328V8.36328ZM13.425 6.36328C12.8727 6.36328 12.425 6.811 12.425 7.36328C12.425 7.91557 12.8727 8.36328 13.425 8.36328V7.36328V6.36328ZM31.325 8.36328C31.8773 8.36328 32.325 7.91557 32.325 7.36328C32.325 6.811 31.8773 6.36328 31.325 6.36328V7.36328V8.36328ZM35.8 6.36328C35.2477 6.36328 34.8 6.811 34.8 7.36328C34.8 7.91557 35.2477 8.36328 35.8 8.36328V7.36328V6.36328ZM53.7 8.36328C54.2523 8.36328 54.7 7.91557 54.7 7.36328C54.7 6.811 54.2523 6.36328 53.7 6.36328V7.36328V8.36328ZM58.175 6.36328C57.6227 6.36328 57.175 6.811 57.175 7.36328C57.175 7.91557 57.6227 8.36328 58.175 8.36328V7.36328V6.36328ZM76.075 8.36328C76.6273 8.36328 77.075 7.91557 77.075 7.36328C77.075 6.811 76.6273 6.36328 76.075 6.36328V7.36328V8.36328ZM80.55 6.36328C79.9977 6.36328 79.55 6.811 79.55 7.36328C79.55 7.91557 79.9977 8.36328 80.55 8.36328V7.36328V6.36328ZM0 7.36328V8.36328H8.95V7.36328V6.36328H0V7.36328ZM13.425 7.36328V8.36328H31.325V7.36328V6.36328H13.425V7.36328ZM35.8 7.36328V8.36328H53.7V7.36328V6.36328H35.8V7.36328ZM58.175 7.36328V8.36328H76.075V7.36328V6.36328H58.175V7.36328ZM80.55 7.36328V8.36328H89.5V7.36328V6.36328H80.55V7.36328Z" fill="black"/>
</svg>
