<svg width="180" height="174" viewBox="0 0 180 174" fill="none" xmlns="http://www.w3.org/2000/svg">
<path d="M89.9977 158.639C131.521 158.639 165.183 126.457 165.183 86.759C165.183 47.061 131.521 14.8794 89.9977 14.8794C48.4741 14.8794 14.8125 47.061 14.8125 86.759C14.8125 126.457 48.4741 158.639 89.9977 158.639Z" fill="url(#paint0_linear_7353_104406)"/>
<path d="M90 14.8148C131.528 14.8148 165.185 46.9907 165.185 86.6852C165.185 126.38 131.519 158.556 90 158.556C48.4815 158.556 14.8148 126.389 14.8148 86.6852C14.8148 46.9815 48.4815 14.8148 90 14.8148ZM90 0C40.3796 0 0 38.8889 0 86.6852C0 134.481 40.3796 173.37 90 173.37C139.62 173.37 180 134.481 180 86.6852C180 38.8889 139.63 0 90 0Z" fill="white"/>
<mask id="mask0_7353_104406" style="mask-type:luminance" maskUnits="userSpaceOnUse" x="14" y="14" width="152" height="145">
<path d="M89.9977 158.639C131.521 158.639 165.183 126.457 165.183 86.759C165.183 47.061 131.521 14.8794 89.9977 14.8794C48.4741 14.8794 14.8125 47.061 14.8125 86.759C14.8125 126.457 48.4741 158.639 89.9977 158.639Z" fill="white"/>
</mask>
<g mask="url(#mask0_7353_104406)">
<path d="M135.935 117.037C137.527 118.916 139.907 122.296 141.009 127.064C143.268 136.916 138.24 144.87 137.139 146.527C131.268 144.527 125.065 142.657 118.509 141.009C90.8053 134.027 65.4627 132.99 44.6016 134.24C47.7497 129.953 52.833 124.518 60.3979 122C71.8608 118.194 80.8608 123.814 92.8053 125.768C102.694 127.379 117.009 126.87 135.944 117.037H135.935Z" fill="url(#paint1_linear_7353_104406)"/>
<path d="M58.3438 154.259C60.1771 149.75 63.7697 142.055 69.6123 135.546C72.5289 132.296 74.9178 130.546 75.8715 129.879C76.8252 129.213 80.0475 127.027 84.8438 125.389C88.8067 124.037 95.7697 122.398 104.038 123.916C108.029 124.648 111.64 125.314 114.677 127.639C121.307 132.722 122.853 143.944 119.788 155.74C111.834 157.176 102.075 158.287 90.9363 158.157C78.0938 158.009 67.0475 156.259 58.353 154.259H58.3438Z" fill="#FEF2DA"/>
<path d="M51.737 145.287C48.2833 143.083 35.5055 134.435 35.2833 122.629C35.1629 116.481 37.1536 111.638 37.1536 111.638C39.3944 105.564 42.0981 103.49 42.7185 97.3885C42.8111 96.5089 42.8296 95.7774 42.8388 95.3237C38.8018 91.1663 35.5611 90.9811 34.3481 91.0181C27.4499 91.2403 20.1629 101.037 19.0703 116.009C19.9129 117.824 20.8481 119.657 21.8944 121.5C29.6074 135.148 40.237 144.333 49.4499 150.398C50.2185 148.694 50.9777 146.99 51.7462 145.296L51.737 145.287Z" fill="url(#paint2_linear_7353_104406)"/>
<path d="M42.8406 95.3239C42.9424 94.2128 42.9424 92.3054 42.0906 90.2313C40.6924 86.8424 37.7387 84.8332 35.5072 84.0276C28.7758 81.5924 21.2387 87.2591 17.6832 91.5739C15.6554 94.0369 14.5628 96.4906 13.9609 98.148C13.998 101.305 14.4517 105.796 16.4054 110.75C17.3406 113.12 18.4239 115.12 19.4702 116.768C19.3498 113.148 19.6924 105.963 24.3683 99.435C26.4517 96.5276 29.8776 91.7498 35.1369 91.7498C38.9239 91.7498 41.7387 94.2313 42.8406 95.3239Z" fill="#FEF2DA"/>
<path d="M19.8296 115.083C23.987 116.472 29.0518 109.981 30.5981 107.991C32.0426 106.139 38.4778 97.9073 35.0333 92.4258C33.5333 90.0369 30.5703 88.7036 27.9315 88.7314C21.45 88.7777 16.3481 96.6573 15.7 103.407C15.3111 107.426 16.2278 113.889 19.8296 115.092V115.083Z" fill="#FFDFC0"/>
<path d="M50.3503 144.889C46.4521 143.166 42.9707 140.454 40.3133 137.065C37.6744 133.657 35.8966 129.592 35.1466 125.333C34.4151 121.092 34.6651 116.565 36.3781 112.509C37.2021 110.491 38.304 108.657 39.2114 106.824C40.1281 104.991 40.8596 103.12 41.2762 101.148C41.6929 99.1943 41.8781 97.1294 41.9244 95.0924C41.9521 93.0831 41.6744 91.1202 40.7392 89.4628C40.267 88.6387 39.6651 87.898 38.9521 87.2591C38.2299 86.6387 37.4058 86.1202 36.517 85.7128C34.7484 84.898 32.7299 84.5183 30.7392 84.4628C26.7484 84.3609 22.8318 86.1294 19.8781 88.8794C16.8966 91.6387 14.8225 95.3517 14.2021 99.4257C14.1744 99.6294 13.9799 99.7683 13.7762 99.7406C13.5818 99.7128 13.4521 99.5369 13.4614 99.3424C13.6281 97.2128 14.1836 95.0831 15.1558 93.148C16.1188 91.2035 17.4336 89.4535 18.9707 87.935C22.0633 84.9257 26.2947 82.8794 30.7484 82.8887C32.9429 82.9072 35.1466 83.2498 37.2021 84.1665C38.2299 84.6202 39.2021 85.222 40.0725 85.9628C40.9336 86.7128 41.6744 87.6109 42.2484 88.6017C43.4058 90.6109 43.7299 92.9535 43.7114 95.1109C43.6929 96.2035 43.6558 97.2406 43.5355 98.3239C43.4521 99.398 43.2855 100.481 43.054 101.546C42.591 103.676 41.7762 105.741 40.804 107.639C39.8318 109.555 38.7577 111.324 37.9892 113.185C37.2021 115.037 36.7207 116.991 36.5447 119C36.3318 121.009 36.4244 123.046 36.7207 125.055C37.3503 129.065 38.9614 132.935 41.3966 136.204C43.841 139.472 47.0818 142.129 50.7021 144.111C50.9151 144.222 50.9892 144.481 50.8781 144.694C50.767 144.889 50.5262 144.972 50.3225 144.879L50.3503 144.889Z" fill="black"/>
<path d="M44.4652 133.703C48.9652 125.907 57.6596 120.444 66.6411 119.814C67.0578 119.796 67.1689 120.425 66.7615 120.546C60.4652 122.259 54.5763 125.148 49.7059 129.527C48.0578 130.944 46.6874 132.611 45.1689 134.203C44.8448 134.564 44.2337 134.138 44.4652 133.713V133.703Z" fill="black"/>
</g>
<path d="M129.395 135.482C124.45 134.287 124.015 138.241 115.413 139.593C111.358 140.232 107.858 140.093 102.886 142.065C101.997 142.417 101.099 142.898 100.089 143.611C98.5616 144.685 95.4597 146.917 94.4412 151.028C93.5245 154.713 94.2653 159.945 96.7375 160.871C97.2375 161.056 98.3764 161.278 100.219 159.963C100.691 160.13 101.719 160.408 102.96 160.167C104.256 159.917 105.099 159.241 105.46 158.917C106.589 159.741 107.58 159.963 108.191 160.037C110.886 160.343 113.608 158.398 115.136 155.158C117.302 155.491 122.654 156.009 128.339 153.185C132.562 151.093 135.089 148.083 136.349 146.343C136.765 145.389 137.237 143.852 136.886 142.111C136.145 138.491 132.275 136.185 129.404 135.491L129.395 135.482Z" fill="#FEF2DA"/>
<path d="M127.484 132.667C124.595 140.325 115.095 140.852 108.169 141.806C103.197 142.88 97.4654 144.584 95.4746 149.676C94.845 151.269 94.6598 153.038 94.6876 154.815C94.7154 155.25 94.0209 155.334 93.9469 154.899C92.3543 147.315 98.345 142.334 105.104 140.676C107.725 139.741 110.595 139.825 113.28 139.334C116.669 138.63 120.465 138.26 123.289 136.195C124.66 135.167 125.771 133.797 126.706 132.297C126.956 131.862 127.678 132.204 127.475 132.676L127.484 132.667Z" fill="black"/>
<path d="M107.312 150.593C106.237 151.806 105.33 153.204 105.293 154.732C105.284 157.139 106.089 159.306 108.608 158.741C111.08 158.296 112.941 156.574 114.821 154.917C115.117 154.63 115.608 155.028 115.404 155.38C113.626 158.398 109.524 161.861 105.774 160.167C102.256 157.861 103.256 151.639 106.812 149.898C107.247 149.667 107.663 150.278 107.312 150.602V150.593Z" fill="black"/>
<path d="M115.164 154.722C122.58 154.769 131.062 153.509 135.432 146.843C137.636 143.769 139.006 140.121 139.941 136.445C140.941 132.797 141.488 128.972 140.349 125.315C138.969 120.408 135.182 116.556 130.886 113.917C130.71 113.815 130.654 113.574 130.766 113.398C130.867 113.241 131.062 113.185 131.238 113.259C136.062 115.445 140.164 119.621 141.858 124.852C143.682 130.074 142.201 135.658 140.58 140.722C137.664 149.084 132.071 154.621 123.043 155.528C120.414 155.889 117.719 155.963 115.099 155.584C114.58 155.5 114.627 154.722 115.164 154.722Z" fill="black"/>
<path d="M100.75 151.667C99.8516 153.676 99.5739 155.963 100.296 157.991C101.074 160.185 103.509 159.593 105.213 158.639C105.546 158.463 105.916 158.889 105.694 159.194C104.953 160.296 103.639 160.972 102.176 161.083C98.7683 161.315 97.7035 157.361 98.2683 154.648C98.5461 153.343 99.0368 152.037 100.055 151.176C100.389 150.87 100.935 151.269 100.75 151.676V151.667Z" fill="black"/>
<path d="M98.5219 148.445C97.0219 150.139 95.6608 151.88 95.3367 154.112C95.0034 157.621 95.7904 162.195 100.3 159.491C100.485 159.399 100.716 159.473 100.809 159.658C100.874 159.797 100.855 159.945 100.772 160.056C100.235 160.741 99.5126 161.25 98.6237 161.547C97.7534 161.834 96.6052 161.797 95.7349 161.204C94.0774 160.093 93.6515 158.167 93.4478 156.389C93.0589 152.982 95.0034 149.38 98.0034 147.75C98.42 147.537 98.8367 148.093 98.5219 148.436V148.445Z" fill="black"/>
<path d="M73.4585 123.593C90.0697 127.87 99.9122 130.398 112.931 127.602C117.959 126.519 125.847 124.732 133.31 118.352C136.31 115.787 141.597 111.269 143.727 103.546C146.551 93.3057 141.912 84.3612 139.949 80.5649C137.144 75.1575 133.616 71.4723 131.172 69.2779C130.283 64.5556 128.394 57.6297 124.06 50.2223C120.69 44.4538 116.884 40.2038 113.847 37.2964C111.162 39.0556 107.866 41.5742 104.57 45.0927C100.773 49.139 98.2641 53.139 96.6345 56.2408C94.9123 56.2038 92.3845 56.2686 89.403 56.7964C70.7085 60.0742 54.8937 77.7223 52.1159 96.2686C51.44 100.806 50.2919 108.445 54.6993 114.667C56.5974 117.352 59.7271 120.046 73.4678 123.583L73.4585 123.593Z" fill="#FEF2DA"/>
<path d="M89.393 56.8056C90.7541 58.1945 92.9115 60.7778 94.2726 64.6019C94.5782 65.463 95.6986 68.6852 95.4949 72.2871C95.2171 77.2222 92.5597 80.8889 88.4578 85.6482C77.18 98.7222 71.5412 105.25 61.7449 107.509C57.643 108.454 54.1337 108.398 51.9486 108.232C51.4023 106.176 50.8467 103.185 50.9949 99.5648C51.143 96.2222 51.8374 93.4908 52.4949 91.5556C50.1523 88.1204 46.5967 81.9537 44.9856 73.4722C43.5689 66.0278 44.2078 59.7871 44.9208 55.8797C48.9671 55.0648 54.9949 54.3148 62.2263 55.176C69.2819 56.0185 74.8652 58.0834 78.5689 59.7871C79.93 59.0741 81.7171 58.2778 83.893 57.6852C86.0041 57.1111 87.893 56.8889 89.393 56.8056Z" fill="url(#paint3_linear_7353_104406)"/>
<path d="M108.091 101.417C108.396 101.324 108.48 101.093 109.331 99.3056C109.998 97.8982 110.109 97.713 109.998 97.5186C109.665 96.9352 108.044 97.2778 106.748 97.5649C105.554 97.8241 103.739 98.213 103.711 98.8334C103.702 99.1852 104.267 99.2686 105.841 100.232C107.359 101.157 107.628 101.565 108.1 101.426L108.091 101.417Z" fill="#D46D5A"/>
<path d="M69.1283 68.7038C69.2579 70.6853 66.6005 71.7594 63.2209 75.1945C60.0449 78.426 58.2301 81.7408 57.2301 83.926C56.2486 81.8519 54.8042 78.6297 53.332 74.5557C50.582 66.9538 49.2116 63.0186 50.8412 61.4538C52.4616 59.9075 56.1931 61.4723 61.7486 63.7501C65.9153 65.4631 68.9894 66.7223 69.1283 68.7131V68.7038Z" fill="url(#paint4_linear_7353_104406)"/>
<path d="M121.897 63.4815C119.786 62.0648 117.073 60.4907 113.777 59.1111C110.564 57.7593 107.61 56.9444 105.156 56.4352C106.425 54.8704 108.027 52.9167 109.916 50.6667C113.786 46.0648 114.378 45.5463 115.175 45.6018C118.045 45.7963 119.86 53.1389 120.749 56.7593C121.443 59.5833 121.749 61.9537 121.888 63.4907L121.897 63.4815Z" fill="url(#paint5_linear_7353_104406)"/>
<path d="M125.768 72.0091C123.249 71.7313 120.712 71.7313 118.222 72.1202C115.694 72.6573 113.425 73.2406 110.759 73.2499C110.675 73.2499 110.62 73.1387 110.685 73.0739C112.685 71.1665 115.425 70.5462 118.092 70.6388C120.712 70.6017 123.333 70.9721 125.796 71.8239C125.898 71.861 125.861 72.0184 125.759 72.0091H125.768Z" fill="black"/>
<path d="M68.9109 84.963C72.7721 80.9815 79.0128 77.0555 84.7535 78.8148C84.8369 78.8426 84.8461 78.9722 84.7535 79C81.985 80.0648 79.3646 80.5093 76.5683 81.2315C73.9017 82.0741 71.3554 83.3889 69.0313 85.1018C68.948 85.1667 68.8276 85.0463 68.9109 84.963Z" fill="black"/>
<path d="M99.9119 113C100.69 111.38 101.995 110.083 103.356 108.917C104.727 107.75 106.366 106.62 108.208 106.315C111.875 105.713 115.801 107.167 118.162 109.944C118.412 110.25 118.004 110.694 117.68 110.472C110.653 105.898 105.967 107.805 100.579 113.491C100.264 113.824 99.6989 113.407 99.9026 113.009L99.9119 113Z" fill="black"/>
<path d="M136.322 100.126C139.224 99.214 141.065 96.8413 140.432 94.8264C139.799 92.8115 136.932 91.9174 134.029 92.8293C131.127 93.7412 129.287 96.1139 129.92 98.1288C130.553 100.144 133.419 101.038 136.322 100.126Z" fill="url(#paint6_linear_7353_104406)"/>
<path d="M77.3404 113.991C80.8455 113.848 83.6132 111.918 83.5221 109.68C83.4311 107.442 80.5158 105.744 77.0107 105.886C73.5055 106.029 70.7379 107.959 70.8289 110.197C70.92 112.435 73.8353 114.133 77.3404 113.991Z" fill="url(#paint7_linear_7353_104406)"/>
<path d="M114.534 94.722C110.868 92.0461 110.618 87.3702 110.59 86.4535C110.562 85.4165 110.571 80.6017 114.442 77.6109C117.914 74.935 122.497 75.2406 125.618 76.8054C130.692 79.3424 133.331 85.9165 131.386 90.1757C130.636 91.8146 129.405 92.7035 128.331 93.472C125.275 95.6572 119.081 98.0461 114.525 94.7313L114.534 94.722Z" fill="white"/>
<path d="M72.2035 104.611C71.7776 103.768 69.2405 98.5553 71.5553 92.8794C73.1942 88.8609 77.4164 84.259 83.2776 84.5183C88.9905 84.7775 93.6757 89.5461 94.259 94.4627C94.3331 95.1201 94.5553 97.6109 93.2405 99.935C90.435 104.926 81.9535 106.824 72.2127 104.611H72.2035Z" fill="white"/>
<path d="M128.417 88.0831C128.12 83.472 123.5 79.4813 118.583 80.2313C114.185 80.8979 111.018 85.1387 111.38 89.0091C111.889 94.4257 119.213 98.0739 124.065 95.7128C126.778 94.3887 128.611 91.2405 128.417 88.0924V88.0831Z" fill="black"/>
<path d="M151.348 83.7776C149.283 84.2498 147.329 85.0832 145.57 86.2128C143.848 87.5369 142.431 88.7591 140.385 89.7498C140.311 89.7869 140.218 89.7128 140.237 89.6387C140.792 87.3054 142.709 85.722 144.857 84.9165C146.876 83.9906 149.116 83.5276 151.329 83.5924C151.431 83.5924 151.45 83.7591 151.348 83.7776Z" fill="black"/>
<path d="M153.627 88.7039C151.469 89.1761 149.34 89.7502 147.247 90.4076C145.136 91.2317 143.136 91.8798 140.775 91.7224C140.692 91.7224 140.645 91.6113 140.71 91.5465C142.405 89.8243 144.618 89.1761 146.914 88.9631C149.127 88.602 151.377 88.4539 153.618 88.5187C153.719 88.5187 153.738 88.6854 153.636 88.7039H153.627Z" fill="black"/>
<path d="M154.022 95.0183C152.068 94.5554 150.059 94.3887 148.078 94.5183C146.031 94.8239 144.272 95.1387 142.115 94.8517C142.031 94.8517 141.994 94.7313 142.05 94.6757C143.642 93.0368 145.939 92.6757 148.087 93.0276C150.189 93.2035 152.244 93.8331 154.078 94.8331C154.17 94.8794 154.115 95.0368 154.013 95.0091L154.022 95.0183Z" fill="black"/>
<path d="M49.7527 112.454C53.1879 110.231 58.9472 108.398 62.3453 111.555C62.4101 111.611 62.3731 111.722 62.2805 111.731C60.0305 112.009 58.1787 111.731 56.012 111.555C53.9194 111.555 51.8268 111.907 49.8268 112.62C49.7342 112.657 49.6509 112.509 49.7435 112.454H49.7527Z" fill="black"/>
<path d="M50.4999 117.824C53.2961 116.009 56.3239 114.278 59.5461 113.389C60.6665 113.204 61.8147 113.13 62.9999 113.408C63.0832 113.426 63.111 113.537 63.0369 113.593C61.1387 115 59.1017 115.537 56.8795 115.982C54.7591 116.565 52.6573 117.232 50.5924 117.991C50.4998 118.028 50.4165 117.889 50.5091 117.824H50.4999Z" fill="black"/>
<path d="M53.5056 123.417C54.5056 121.583 55.9038 119.945 57.5797 118.657C59.2001 117.204 61.3205 116.269 63.5519 116.787C63.6353 116.806 63.6631 116.917 63.5982 116.963C61.9408 118.361 60.2927 119.046 58.3945 119.889C56.6538 120.852 55.0519 122.074 53.6538 123.519C53.5797 123.593 53.4501 123.5 53.5056 123.407V123.417Z" fill="black"/>
<path d="M84.0145 104.966C88.9707 104.764 92.8343 100.811 92.6441 96.1353C92.4539 91.4601 88.2819 87.8336 83.3256 88.0352C78.3694 88.2369 74.5058 92.1904 74.696 96.8656C74.8862 101.541 79.0583 105.167 84.0145 104.966Z" fill="black"/>
<path d="M121.102 87.4722C122.706 87.4069 123.956 86.0989 123.893 84.5507C123.83 83.0025 122.478 81.8004 120.874 81.8657C119.269 81.931 118.02 83.2389 118.083 84.7871C118.146 86.3353 119.497 87.5374 121.102 87.4722Z" fill="white"/>
<path d="M86.7738 95.9167C88.4957 95.8466 89.8392 94.5017 89.7745 92.9126C89.7099 91.3235 88.2616 90.0921 86.5397 90.1622C84.8178 90.2323 83.4743 91.5773 83.5389 93.1663C83.6036 94.7554 85.0519 95.9868 86.7738 95.9167Z" fill="white"/>
<path d="M110.654 86.4536C109.867 76.7499 119.562 71.3055 127.608 76.7962C131.988 79.4999 133.543 85.6666 131.645 90.1851C131.608 90.2777 131.451 90.2499 131.469 90.1388C131.756 85.4351 130.256 81.0555 126.543 78.2777C119.617 72.6851 110.71 77.7869 110.849 86.4351C110.858 86.5462 110.664 86.5647 110.664 86.4351L110.654 86.4536Z" fill="black"/>
<path d="M72.1296 104.658C68.6481 100.139 68.5833 92.7964 72.5648 88.3983C76.4352 84.0372 83.3426 82.2687 88.5463 85.1576C91.8426 87.0187 94.1667 90.9076 94.2685 94.5557C92.4907 86.5742 85.463 82.6298 77.9444 86.3057C71.3518 89.6668 69.6204 97.9446 72.287 104.565C72.3333 104.658 72.1852 104.741 72.1296 104.658Z" fill="black"/>
<path d="M59.6551 119.333C50.757 113.315 47.5996 101.028 51.757 91.2314L51.831 91.9999C44.5533 81.5832 41.6829 68.1943 44.0255 55.7036C44.0903 55.3425 44.3588 55.074 44.6921 54.9906C50.3959 53.5184 56.3681 53.0925 62.2199 53.7962C68.0718 54.4814 73.757 56.3517 78.9144 59.1388L78.2755 59.1203C85.6829 55.8517 94.1551 54.7036 102.072 56.5369C102.275 56.5832 102.396 56.7777 102.35 56.9814C102.303 57.1758 102.118 57.2962 101.933 57.2684C94.1273 55.9814 86.0347 57.1388 78.8773 60.4443C78.6644 60.5462 78.4329 60.5277 78.2384 60.4258C68.1736 55.148 56.1366 53.8147 45.1644 56.7591L45.831 56.0369C43.6088 68.111 46.294 80.9166 53.1736 91.0925C53.331 91.324 53.3496 91.6203 53.2477 91.861C49.1736 101.157 52.1366 112.435 60.1736 118.648C60.5996 118.944 60.1181 119.667 59.6551 119.333Z" fill="black"/>
<path d="M96.2419 56.0648C99.7882 47.9351 105.918 41 113.436 36.3148C113.733 36.1296 114.112 36.1759 114.353 36.4166C123.372 45.2037 129.575 56.7685 132.057 69.1018L131.77 68.6018C139.446 75.3796 144.594 85.1018 145.696 95.3055C146.631 106.389 139.723 114.87 131.131 120.907C125.566 124.824 119.02 127.278 112.325 128.102C112.122 128.13 111.936 127.981 111.909 127.778C111.881 127.583 112.02 127.407 112.214 127.37C115.483 126.768 118.677 125.87 121.733 124.62C127.853 122.13 133.233 118.065 137.686 113.222C144.723 105.685 145.649 95.25 141.566 86.0092C139.251 79.8333 135.473 74.324 130.566 69.9629C130.409 69.824 130.316 69.6481 130.279 69.4629C129.085 63.4629 127.01 57.6388 124.14 52.2407C121.288 46.8333 117.631 41.8426 113.307 37.4907L114.233 37.6018C106.853 42.074 100.881 48.7037 97.029 56.4351C96.7882 56.9351 96.029 56.5648 96.2512 56.074L96.2419 56.0648Z" fill="black"/>
<path d="M43.7438 135.769C44.6419 131.111 60.6512 127.611 69.2715 133.991C70.6326 135 73.7715 137.324 73.8734 140.898C73.9382 143.148 72.753 144.917 72.0771 145.769C72.0956 146.047 72.2993 150.148 69.0493 152.537C66.4752 154.436 62.8178 154.454 60.003 152.519C57.2252 154.019 55.1326 153.75 54.2993 153.584C49.8734 152.676 46.253 147.278 46.3364 140.241C43.9752 138.195 43.5586 136.76 43.753 135.769H43.7438Z" fill="#FEF2DA"/>
<path d="M45.7151 140.972C38.3077 134.426 47.6966 130.241 53.891 129.917C59.9095 129.417 66.2706 130.676 71.1873 134.333C74.928 137.065 75.5854 141.954 72.5762 145.491C72.4466 145.648 72.2151 145.676 72.0577 145.546C71.9188 145.435 71.8817 145.232 71.9651 145.083C73.9929 141.685 73.6317 137.852 70.2243 135.593C64.0021 131.482 55.5854 130.583 48.5114 132.75C46.9558 133.296 45.0484 134.158 44.4929 135.732C43.9466 137.352 45.3262 139.083 46.3262 140.371C46.678 140.759 46.0854 141.324 45.7151 140.972Z" fill="black"/>
<path d="M47.2327 138.398C46.8901 142.065 47.1494 145.954 49.5475 148.842C52.3808 152.222 58.7234 155.009 60.7882 149.583C61.2512 148.481 61.4364 147.259 61.529 146C61.5475 145.574 62.1957 145.537 62.2697 145.954C63.0105 149.361 61.1864 153.731 57.3994 154.342C53.7697 154.796 50.4179 152.63 48.1494 149.981C45.6401 146.676 45.1401 142.083 46.3994 138.204C46.566 137.731 47.3068 137.907 47.2327 138.407V138.398Z" fill="black"/>
<path d="M59.8456 152.111C67.5956 156 73.9382 148.806 70.1326 141.343C69.9382 140.972 70.466 140.611 70.7437 140.917C75.29 145.843 72.0493 154.834 65.0308 154.797C62.966 154.815 60.8456 154.223 59.3641 152.824C59.003 152.5 59.4197 151.898 59.8456 152.111Z" fill="black"/>
<defs>
<linearGradient id="paint0_linear_7353_104406" x1="158.387" y1="122.972" x2="19.3958" y2="49.3609" gradientUnits="userSpaceOnUse">
<stop stop-color="#649657"/>
<stop offset="1" stop-color="#162113"/>
</linearGradient>
<linearGradient id="paint1_linear_7353_104406" x1="44.6578" y1="135.511" x2="141.587" y2="131.567" gradientUnits="userSpaceOnUse">
<stop stop-color="#761F00"/>
<stop offset="1" stop-color="#EB3F00"/>
</linearGradient>
<linearGradient id="paint2_linear_7353_104406" x1="18.7216" y1="111.789" x2="58.7079" y2="126.62" gradientUnits="userSpaceOnUse">
<stop stop-color="#761F00"/>
<stop offset="1" stop-color="#EB3F00"/>
</linearGradient>
<linearGradient id="paint3_linear_7353_104406" x1="44.8093" y1="81.9612" x2="95.8782" y2="79.8833" gradientUnits="userSpaceOnUse">
<stop stop-color="#761F00"/>
<stop offset="1" stop-color="#EB3F00"/>
</linearGradient>
<linearGradient id="paint4_linear_7353_104406" x1="50.5002" y1="72.5556" x2="69.2532" y2="71.7926" gradientUnits="userSpaceOnUse">
<stop stop-color="#FF753F"/>
<stop offset="1" stop-color="#CD3700"/>
</linearGradient>
<linearGradient id="paint5_linear_7353_104406" x1="105.113" y1="55.0708" x2="121.534" y2="54.4027" gradientUnits="userSpaceOnUse">
<stop stop-color="#FF753F"/>
<stop offset="1" stop-color="#CD3700"/>
</linearGradient>
<linearGradient id="paint6_linear_7353_104406" x1="129.917" y1="98.1199" x2="140.438" y2="94.8148" gradientUnits="userSpaceOnUse">
<stop stop-color="#FFCDC0"/>
<stop offset="0.07" stop-color="#FFCFC0"/>
<stop offset="0.56" stop-color="#FFDDC0"/>
<stop offset="1" stop-color="#FFE2C0"/>
</linearGradient>
<linearGradient id="paint7_linear_7353_104406" x1="70.8289" y1="110.197" x2="83.5221" y2="109.68" gradientUnits="userSpaceOnUse">
<stop stop-color="#FFCDC0"/>
<stop offset="0.07" stop-color="#FFCFC0"/>
<stop offset="0.56" stop-color="#FFDDC0"/>
<stop offset="1" stop-color="#FFE2C0"/>
</linearGradient>
</defs>
</svg>
