<svg width="70" height="68" viewBox="0 0 70 68" fill="none" xmlns="http://www.w3.org/2000/svg">
<path d="M34.9996 61.6935C18.8515 61.6935 5.76092 49.1784 5.76092 33.7403C5.76092 18.3022 18.8515 5.78711 34.9996 5.78711C51.1477 5.78711 64.2383 18.3022 64.2383 33.7403C64.2383 49.1784 51.1477 61.6935 34.9996 61.6935Z" fill="url(#paint0_linear_5599_75786)"/>
<path d="M35 5.76132C18.8503 5.76132 5.76131 18.2742 5.76131 33.7109C5.76131 49.1476 18.8539 61.6605 35 61.6605C51.1461 61.6605 64.2387 49.1512 64.2387 33.7109C64.2387 18.2706 51.1461 5.76132 35 5.76132ZM35 0C54.2968 0 70 15.1235 70 33.7109C70 52.2984 54.2968 67.4218 35 67.4218C15.7032 67.4218 0 52.2984 0 33.7109C0 15.1235 15.6996 0 35 0Z" fill="#FFFFEE"/>
<mask id="mask0_5599_75786" style="mask-type:luminance" maskUnits="userSpaceOnUse" x="5" y="5" width="60" height="57">
<path d="M34.9996 61.6935C18.8515 61.6935 5.76092 49.1784 5.76092 33.7403C5.76092 18.3022 18.8515 5.78711 34.9996 5.78711C51.1477 5.78711 64.2383 18.3022 64.2383 33.7403C64.2383 49.1784 51.1477 61.6935 34.9996 61.6935Z" fill="white"/>
</mask>
<g mask="url(#mask0_5599_75786)">
<path d="M17.1358 45.5137C16.5164 46.2446 15.591 47.5589 15.1625 49.4134C14.2839 53.2446 16.2392 56.3377 16.6677 56.9823C18.9506 56.2045 21.3631 55.4771 23.9125 54.8362C34.6862 52.1212 44.5416 51.7179 52.6543 52.204C51.43 50.5368 49.4532 48.4231 46.5113 47.4437C42.0535 45.9638 38.5535 48.1495 33.9084 48.9092C30.0627 49.5358 24.4959 49.3377 17.1322 45.5137H17.1358Z" fill="url(#paint1_linear_5599_75786)"/>
<path d="M47.3105 59.9897C46.5976 58.2361 45.2005 55.2438 42.9283 52.7125C41.7941 51.4486 40.8651 50.768 40.4942 50.5088C40.1233 50.2495 38.8702 49.3997 37.005 48.7624C35.4638 48.2366 32.756 47.5993 29.5405 48.1898C27.9885 48.4743 26.5842 48.7336 25.4031 49.6374C22.8249 51.6142 22.2236 55.9784 23.4155 60.5659C26.5086 61.124 30.3039 61.5561 34.6356 61.5057C39.63 61.4481 43.9258 60.7675 47.3069 59.9897H47.3105Z" fill="#FEF2DA"/>
<path d="M49.8783 56.5003C51.2214 55.6433 56.1906 52.2801 56.277 47.6891C56.3238 45.2981 55.5496 43.4149 55.5496 43.4149C54.6782 41.0528 53.6268 40.2462 53.3855 37.8732C53.3495 37.5312 53.3423 37.2467 53.3387 37.0703C54.9087 35.4535 56.169 35.3815 56.6407 35.3959C59.3233 35.4823 62.1571 39.292 62.582 45.1145C62.2544 45.8203 61.8907 46.5332 61.4838 47.2498C58.4843 52.5574 54.3505 56.1294 50.7677 58.488C50.4689 57.8254 50.1736 57.1629 49.8747 56.5039L49.8783 56.5003Z" fill="url(#paint2_linear_5599_75786)"/>
<path d="M53.3374 37.0702C53.2978 36.6381 53.2978 35.8963 53.6291 35.0897C54.1728 33.7718 55.3214 32.9905 56.1892 32.6772C58.807 31.7302 61.7381 33.9339 63.1208 35.6119C63.9094 36.5697 64.3343 37.5239 64.5684 38.1684C64.554 39.3963 64.3775 41.1427 63.6177 43.0692C63.2541 43.991 62.8328 44.7688 62.4259 45.4097C62.4727 44.0018 62.3395 41.2075 60.521 38.669C59.7108 37.5383 58.3785 35.6803 56.3333 35.6803C54.8605 35.6803 53.7659 36.6453 53.3374 37.0702Z" fill="#FEF2DA"/>
<path d="M62.2857 44.754C60.6689 45.2941 58.6992 42.7699 58.0979 41.9957C57.5362 41.2756 55.0336 38.0744 56.3731 35.9428C56.9564 35.0137 58.1087 34.4952 59.1349 34.506C61.6555 34.524 63.6396 37.5883 63.8916 40.2133C64.0429 41.7761 63.6864 44.2895 62.2857 44.7576V44.754Z" fill="#FFDFC0"/>
<path d="M50.4178 56.3455C51.9338 55.6757 53.2877 54.6207 54.3211 53.3028C55.3473 51.9777 56.0387 50.3969 56.3304 48.7406C56.6148 47.0914 56.5176 45.3306 55.8515 43.7534C55.531 42.9684 55.1025 42.2555 54.7496 41.5425C54.3931 40.8296 54.1087 40.1022 53.9466 39.3352C53.7846 38.5754 53.7126 37.7725 53.6946 36.9803C53.6838 36.1989 53.7918 35.4355 54.1555 34.791C54.3391 34.4705 54.5732 34.1824 54.8504 33.934C55.1313 33.6927 55.4518 33.4911 55.7974 33.3326C56.4852 33.0158 57.2702 32.8681 58.0444 32.8465C59.5963 32.8069 61.1195 33.4947 62.2681 34.5641C63.4276 35.6372 64.2342 37.0811 64.4754 38.6655C64.4862 38.7447 64.5618 38.7987 64.6411 38.7879C64.7167 38.7771 64.7671 38.7087 64.7635 38.6331C64.6987 37.8049 64.4826 36.9767 64.1045 36.2241C63.7301 35.4679 63.2187 34.7874 62.621 34.1968C61.4183 33.0266 59.7727 32.2308 58.0408 32.2344C57.1874 32.2416 56.3304 32.3748 55.531 32.7313C55.1313 32.9077 54.7532 33.1418 54.4147 33.4299C54.0798 33.7215 53.7918 34.0708 53.5685 34.4561C53.1184 35.2375 52.9924 36.1485 52.9996 36.9875C53.0068 37.4124 53.0212 37.8157 53.068 38.237C53.1004 38.6547 53.1652 39.076 53.2553 39.49C53.4353 40.3182 53.7522 41.1212 54.1303 41.8594C54.5083 42.6048 54.926 43.2925 55.2249 44.0163C55.531 44.7364 55.7182 45.4962 55.7866 46.2776C55.8695 47.059 55.8334 47.8512 55.7182 48.6325C55.4734 50.1917 54.8468 51.6968 53.8998 52.9679C52.9492 54.239 51.6889 55.2725 50.281 56.043C50.1982 56.0862 50.1694 56.1871 50.2126 56.2699C50.2558 56.3455 50.3494 56.3779 50.4286 56.3419L50.4178 56.3455Z" fill="black"/>
<path d="M52.7086 51.9951C50.9586 48.9632 47.5775 46.8388 44.0847 46.5939C43.9226 46.5867 43.8794 46.8316 44.0379 46.8784C46.4864 47.5445 48.7765 48.668 50.6706 50.3712C51.3115 50.9221 51.8444 51.5702 52.435 52.1896C52.561 52.33 52.7987 52.1644 52.7086 51.9987V51.9951Z" fill="black"/>
</g>
<path d="M19.6815 52.6878C21.6043 52.2233 21.7736 53.7609 25.1187 54.2866C26.6959 54.5351 28.057 54.4811 29.9907 55.248C30.3363 55.3849 30.6856 55.5721 31.0781 55.8494C31.6722 56.2671 32.8785 57.1349 33.2746 58.7336C33.6311 60.1668 33.343 62.2012 32.3816 62.5613C32.1872 62.6333 31.7443 62.7197 31.0277 62.2084C30.8441 62.2732 30.4444 62.3813 29.9618 62.2876C29.4577 62.1904 29.1301 61.9276 28.9896 61.8015C28.5503 62.122 28.165 62.2084 27.9274 62.2372C26.8795 62.3561 25.8209 61.5999 25.2268 60.3396C24.3842 60.4692 22.3029 60.6709 20.092 59.5726C18.45 58.7588 17.467 57.5886 16.9773 56.9116C16.8152 56.5407 16.6316 55.943 16.7684 55.266C17.0565 53.8581 18.5616 52.9615 19.6779 52.6914L19.6815 52.6878Z" fill="#FEF2DA"/>
<path d="M20.4234 51.5929C21.5468 54.5708 25.2413 54.7761 27.9347 55.147C29.8683 55.5646 32.0972 56.2272 32.8714 58.2077C33.1163 58.827 33.1883 59.5148 33.1775 60.2061C33.1667 60.3753 33.4367 60.4078 33.4655 60.2385C34.0849 57.2894 31.7552 55.3522 29.1266 54.7077C28.1075 54.344 26.9913 54.3764 25.947 54.1855C24.6291 53.9119 23.1528 53.7678 22.0545 52.9649C21.5216 52.5652 21.0895 52.0322 20.7258 51.4489C20.6286 51.2797 20.3477 51.4129 20.427 51.5965L20.4234 51.5929Z" fill="black"/>
<path d="M28.2699 58.5634C28.6876 59.0351 29.0405 59.5788 29.0549 60.1729C29.0585 61.1092 28.7452 61.9518 27.7658 61.7321C26.8044 61.5593 26.0806 60.8895 25.3496 60.245C25.2344 60.1333 25.0436 60.2882 25.1228 60.425C25.8142 61.5989 27.4093 62.9456 28.8677 62.2866C30.236 61.39 29.8471 58.9703 28.4644 58.2933C28.2951 58.2033 28.1331 58.441 28.2699 58.567V58.5634Z" fill="black"/>
<path d="M25.2158 60.1703C22.3316 60.1883 19.0332 59.6986 17.3336 57.106C16.4767 55.9105 15.9437 54.4918 15.58 53.0623C15.1912 51.6436 14.9787 50.1564 15.4216 48.7341C15.9581 46.8256 17.4309 45.3277 19.1016 44.3015C19.1701 44.2619 19.1917 44.1682 19.1485 44.0998C19.1089 44.0386 19.0332 44.017 18.9648 44.0458C17.0888 44.8956 15.4936 46.5196 14.8347 48.554C14.1253 50.5849 14.7014 52.7562 15.3316 54.7259C16.4658 57.9774 18.6407 60.1307 22.1515 60.4836C23.1742 60.624 24.222 60.6528 25.2411 60.5052C25.4427 60.4728 25.4247 60.1703 25.2158 60.1703Z" fill="black"/>
<path d="M30.8191 58.9829C31.1684 59.7643 31.2764 60.6537 30.9955 61.4422C30.6931 62.2956 29.746 62.0652 29.0835 61.6943C28.9539 61.6259 28.8098 61.7915 28.8963 61.9103C29.1843 62.3388 29.6956 62.6017 30.2646 62.6449C31.5897 62.7349 32.0038 61.1974 31.7841 60.1423C31.6761 59.6346 31.4852 59.1269 31.0892 58.792C30.9595 58.6732 30.7471 58.828 30.8191 58.9865V58.9829Z" fill="black"/>
<path d="M31.6872 57.7299C32.2706 58.3888 32.7999 59.0658 32.9259 59.9336C33.0555 61.2983 32.7495 63.0771 30.9959 62.0256C30.9239 61.9896 30.8338 62.0184 30.7978 62.0905C30.7726 62.1445 30.7798 62.2021 30.8122 62.2453C31.0211 62.5118 31.3019 62.7098 31.6476 62.825C31.9861 62.9366 32.4326 62.9222 32.7711 62.6918C33.4156 62.2597 33.5813 61.5107 33.6605 60.8194C33.8117 59.4943 33.0555 58.0935 31.8889 57.4598C31.7268 57.377 31.5648 57.593 31.6872 57.7263V57.7299Z" fill="black"/>
<path d="M41.4317 48.0636C34.9718 49.7272 31.1442 50.7102 26.0814 49.6227C24.1261 49.2014 21.0582 48.5065 18.156 46.0255C16.9893 45.0281 14.9332 43.2709 14.1051 40.2678C13.0068 36.2853 14.8108 32.8069 15.5742 31.3306C16.6652 29.2277 18.0372 27.7945 18.9878 26.9412C19.3335 25.1047 20.068 22.4113 21.7532 19.5307C23.0639 17.2873 24.5438 15.6346 25.7249 14.5039C26.7692 15.1881 28.051 16.1675 29.3329 17.5358C30.8093 19.1094 31.7851 20.6649 32.4188 21.8712C33.0886 21.8568 34.0716 21.882 35.2311 22.0872C42.5011 23.3619 48.6514 30.2251 49.7316 37.4376C49.9945 39.202 50.441 42.1726 48.727 44.5924C47.9888 45.6366 46.7717 46.6845 41.4281 48.06L41.4317 48.0636Z" fill="#FEF2DA"/>
<path d="M35.2339 22.0911C34.7046 22.6312 33.8656 23.6358 33.3363 25.123C33.2174 25.4579 32.7817 26.7109 32.8609 28.1117C32.969 30.0309 34.0024 31.4568 35.5976 33.3077C39.9834 38.392 42.1763 40.9306 45.9859 41.8092C47.5811 42.1765 48.9458 42.1549 49.7956 42.0901C50.0081 41.2907 50.2241 40.1276 50.1665 38.7197C50.1089 37.4198 49.8388 36.3575 49.5832 35.605C50.4942 34.2691 51.8769 31.8709 52.5034 28.5726C53.0544 25.6775 52.8059 23.2506 52.5286 21.731C50.9551 21.4141 48.6109 21.1225 45.7987 21.4573C43.0549 21.785 40.8836 22.588 39.4432 23.2506C38.9139 22.9733 38.219 22.6636 37.3728 22.4332C36.5518 22.2099 35.8172 22.1235 35.2339 22.0911Z" fill="url(#paint3_linear_5599_75786)"/>
<path d="M27.9647 39.4405C27.8459 39.4045 27.8135 39.3145 27.4822 38.6196C27.223 38.0722 27.1798 38.0002 27.223 37.9246C27.3526 37.6977 27.9827 37.831 28.4869 37.9426C28.9514 38.0434 29.6571 38.1947 29.6679 38.4359C29.6715 38.5727 29.4519 38.6051 28.8397 38.9796C28.2492 39.3397 28.1448 39.4982 27.9611 39.4441L27.9647 39.4405Z" fill="#D46D5A"/>
<path d="M43.1179 26.7187C43.0675 27.4893 44.1009 27.907 45.4152 29.2429C46.6503 30.4996 47.356 31.7886 47.7449 32.6384C48.1266 31.8319 48.6883 30.5788 49.2609 28.9944C50.3303 26.0381 50.8632 24.5078 50.2295 23.8992C49.5994 23.2979 48.1482 23.9064 45.9877 24.7922C44.3674 25.4584 43.1719 25.9481 43.1179 26.7223V26.7187Z" fill="url(#paint4_linear_5599_75786)"/>
<path d="M22.5952 24.6871C23.4162 24.1361 24.4712 23.524 25.7531 22.9875C27.0026 22.4617 28.1513 22.1449 29.1055 21.9468C28.6122 21.3383 27.9892 20.5785 27.2546 19.7035C25.7495 17.9139 25.519 17.7123 25.2094 17.7339C24.0931 17.8095 23.3874 20.6649 23.0417 22.0729C22.7716 23.1711 22.6528 24.0929 22.5988 24.6907L22.5952 24.6871Z" fill="url(#paint5_linear_5599_75786)"/>
<path d="M21.09 28.0032C22.0695 27.8951 23.0561 27.8951 24.0247 28.0464C25.0077 28.2552 25.8899 28.4821 26.927 28.4857C26.9594 28.4857 26.981 28.4425 26.9558 28.4173C26.178 27.6755 25.1122 27.4342 24.0751 27.4702C23.0561 27.4558 22.0371 27.5999 21.0792 27.9312C21.0396 27.9456 21.054 28.0068 21.0936 28.0032H21.09Z" fill="black"/>
<path d="M43.2 33.0414C41.6985 31.493 39.2715 29.9663 37.039 30.6504C37.0066 30.6612 37.003 30.7116 37.039 30.7224C38.1156 31.1365 39.1347 31.3094 40.2221 31.5902C41.2592 31.9179 42.2494 32.4292 43.1532 33.0954C43.1856 33.1206 43.2324 33.0738 43.2 33.0414Z" fill="black"/>
<path d="M31.1436 43.9451C30.8412 43.3149 30.3335 42.8108 29.8041 42.3571C29.2712 41.9034 28.6339 41.4641 27.9173 41.3453C26.4914 41.1112 24.9646 41.6766 24.0464 42.7568C23.9492 42.8756 24.1076 43.0485 24.2337 42.9621C26.9667 41.1833 28.7887 41.925 30.8844 44.1359C31.0068 44.2656 31.2265 44.1035 31.1472 43.9487L31.1436 43.9451Z" fill="black"/>
<path d="M16.9865 38.9376C15.8576 38.583 15.142 37.6603 15.3882 36.8767C15.6343 36.0932 16.749 35.7454 17.8779 36.1001C19.0067 36.4547 19.7223 37.3774 19.4762 38.161C19.23 38.9445 18.1153 39.2923 16.9865 38.9376Z" fill="url(#paint6_linear_5599_75786)"/>
<path d="M39.9251 44.3286C38.562 44.2732 37.4857 43.5227 37.5211 42.6524C37.5565 41.782 38.6903 41.1215 40.0534 41.1769C41.4165 41.2324 42.4928 41.9829 42.4574 42.8532C42.422 43.7235 41.2882 44.3841 39.9251 44.3286Z" fill="url(#paint7_linear_5599_75786)"/>
<path d="M25.4586 36.8359C26.8846 35.7952 26.9818 33.9768 26.9926 33.6203C27.0034 33.217 26.9998 31.3446 25.4946 30.1815C24.1443 29.1409 22.3619 29.2597 21.1484 29.8683C19.1752 30.8549 18.149 33.4115 18.9051 35.0679C19.1968 35.7052 19.6757 36.0509 20.0934 36.3498C21.2817 37.1995 23.6906 38.1286 25.4622 36.8395L25.4586 36.8359Z" fill="#FAFAFA"/>
<path d="M41.9209 40.6811C42.0865 40.3535 43.0731 38.3262 42.1729 36.1189C41.5356 34.5561 39.8936 32.7665 37.6143 32.8674C35.3926 32.9682 33.5706 34.8226 33.3437 36.7346C33.3149 36.9903 33.2285 37.9589 33.7398 38.8627C34.8308 40.8036 38.1292 41.5417 41.9173 40.6811H41.9209Z" fill="#FAFAFA"/>
<path d="M20.0608 34.255C20.1761 32.4617 21.9729 30.9098 23.8849 31.2015C25.5953 31.4607 26.8268 33.1099 26.6864 34.615C26.4883 36.7215 23.6401 38.1402 21.7532 37.222C20.6982 36.7071 19.9852 35.4828 20.0608 34.2586V34.255Z" fill="black"/>
<path d="M11.141 32.5802C11.944 32.7638 12.7037 33.0879 13.3879 33.5272C14.0576 34.0421 14.6086 34.5174 15.4043 34.9027C15.4332 34.9171 15.4692 34.8883 15.462 34.8595C15.2459 33.9521 14.5005 33.3364 13.6652 33.0231C12.8802 32.663 12.0088 32.483 11.1482 32.5082C11.1086 32.5082 11.1014 32.573 11.141 32.5802Z" fill="black"/>
<path d="M10.256 34.4957C11.095 34.6794 11.9232 34.9026 12.737 35.1583C13.5579 35.4788 14.3357 35.7308 15.2539 35.6696C15.2863 35.6696 15.3043 35.6264 15.2791 35.6012C14.6202 34.9314 13.7596 34.6794 12.8666 34.5966C12.006 34.4561 11.131 34.3985 10.2596 34.4237C10.22 34.4237 10.2128 34.4885 10.2524 34.4957H10.256Z" fill="black"/>
<path d="M10.1014 36.9508C10.8612 36.7708 11.6426 36.706 12.4132 36.7564C13.209 36.8752 13.8931 36.9976 14.7321 36.886C14.7645 36.886 14.7789 36.8392 14.7573 36.8176C14.138 36.1803 13.245 36.0398 12.4096 36.1767C11.5922 36.2451 10.7928 36.4899 10.0798 36.8788C10.0438 36.8968 10.0654 36.958 10.105 36.9472L10.1014 36.9508Z" fill="black"/>
<path d="M50.6506 43.7312C49.3147 42.867 47.075 42.154 45.7535 43.3819C45.7283 43.4035 45.7427 43.4467 45.7787 43.4503C46.6537 43.5583 47.3739 43.4503 48.2165 43.3819C49.0303 43.3819 49.844 43.5187 50.6218 43.796C50.6578 43.8104 50.6902 43.7528 50.6542 43.7312H50.6506Z" fill="black"/>
<path d="M50.361 45.8202C49.2735 45.1144 48.096 44.4411 46.8429 44.0954C46.4072 44.0234 45.9607 43.9946 45.4998 44.1026C45.4674 44.1098 45.4566 44.153 45.4854 44.1746C46.2236 44.7219 47.0158 44.9308 47.88 45.1036C48.7046 45.3305 49.522 45.5897 50.3249 45.885C50.361 45.8994 50.3934 45.8454 50.3574 45.8202H50.361Z" fill="black"/>
<path d="M49.192 47.9957C48.8031 47.2828 48.2594 46.6454 47.6077 46.1449C46.9775 45.5796 46.1529 45.2159 45.2851 45.4175C45.2527 45.4247 45.2419 45.4679 45.2671 45.486C45.9117 46.0297 46.5526 46.2961 47.2908 46.6238C47.9678 46.9983 48.5907 47.4736 49.1344 48.0353C49.1632 48.0641 49.2136 48.0281 49.192 47.9921V47.9957Z" fill="black"/>
<path d="M37.3281 40.819C35.4007 40.7406 33.8982 39.2031 33.9722 37.385C34.0461 35.5668 35.6686 34.1565 37.596 34.235C39.5235 34.3134 41.026 35.8508 40.952 37.669C40.878 39.4871 39.2556 40.8974 37.3281 40.819Z" fill="black"/>
<path d="M22.9046 34.0171C22.2807 33.9918 21.7947 33.4831 21.8192 32.881C21.8437 32.279 22.3694 31.8115 22.9933 31.8368C23.6172 31.8622 24.1032 32.3709 24.0787 32.973C24.0542 33.575 23.5285 34.0425 22.9046 34.0171Z" fill="#FAFAFA"/>
<path d="M36.2551 37.2999C35.5854 37.2726 35.063 36.7496 35.0881 36.1316C35.1133 35.5136 35.6765 35.0347 36.3461 35.062C37.0157 35.0892 37.5382 35.6123 37.5131 36.2303C37.4879 36.8482 36.9247 37.3271 36.2551 37.2999Z" fill="#FAFAFA"/>
<path d="M26.9669 33.6201C27.273 29.8465 23.5029 27.7292 20.3738 29.8645C18.6706 30.9159 18.0656 33.3141 18.8038 35.0713C18.8182 35.1073 18.8794 35.0965 18.8722 35.0533C18.7606 33.2241 19.3439 31.5209 20.7879 30.4406C23.4813 28.2657 26.9453 30.2498 26.8913 33.6129C26.8877 33.6562 26.9633 33.6634 26.9633 33.6129L26.9669 33.6201Z" fill="black"/>
<path d="M41.9507 40.6992C43.3046 38.942 43.3298 36.0866 41.7814 34.3762C40.2763 32.6802 37.5901 31.9924 35.5664 33.1159C34.2845 33.8396 33.3807 35.352 33.3411 36.7707C34.0325 33.6668 36.7655 32.1329 39.6894 33.5624C42.2531 34.8695 42.9265 38.0886 41.8895 40.6632C41.8715 40.6992 41.9291 40.7316 41.9507 40.6992Z" fill="black"/>
<path d="M46.8006 46.4065C50.261 44.066 51.4888 39.2877 49.8721 35.478L49.8433 35.7769C52.6735 31.7259 53.7898 26.5192 52.8788 21.6616C52.8536 21.5212 52.7491 21.4168 52.6195 21.3844C50.4014 20.8118 48.0789 20.6462 45.8031 20.9199C43.5274 21.1863 41.3165 21.9137 39.3109 22.9975L39.5593 22.9903C36.6787 21.7193 33.3839 21.2728 30.3052 21.9857C30.226 22.0037 30.1792 22.0793 30.1972 22.1586C30.2152 22.2342 30.2872 22.281 30.3592 22.2702C33.3947 21.7697 36.5418 22.2198 39.3253 23.5053C39.4081 23.5449 39.4981 23.5377 39.5737 23.4981C43.4878 21.4456 48.1689 20.9271 52.4359 22.0721L52.1766 21.7913C53.0408 26.4867 51.9966 31.4667 49.3211 35.424C49.2599 35.514 49.2527 35.6292 49.2923 35.7229C50.8767 39.3381 49.7244 43.7239 46.5989 46.14C46.4333 46.2553 46.6205 46.5361 46.8006 46.4065Z" fill="black"/>
<path d="M32.5739 21.8029C31.1948 18.6413 28.811 15.9443 25.8872 14.1223C25.7719 14.0503 25.6243 14.0683 25.5307 14.1619C22.0235 17.5791 19.6109 22.0765 18.6459 26.8728L18.7575 26.6784C15.7724 29.3142 13.7704 33.095 13.3419 37.0631C12.9782 41.3733 15.6644 44.6717 19.006 47.0194C21.1701 48.5426 23.7159 49.4968 26.3193 49.8173C26.3985 49.8281 26.4705 49.7705 26.4813 49.6912C26.4921 49.6156 26.4381 49.5472 26.3625 49.5328C25.0914 49.2987 23.8491 48.9495 22.6608 48.4633C20.2807 47.4947 18.1886 45.914 16.4566 44.0307C13.72 41.0997 13.3599 37.0415 14.9479 33.4479C15.8481 31.0462 17.3172 28.9037 19.2256 27.2077C19.2868 27.1537 19.3229 27.0853 19.3373 27.0132C19.8018 24.6799 20.6083 22.415 21.7246 20.3157C22.8337 18.2128 24.256 16.272 25.9376 14.5796L25.5775 14.6228C28.4473 16.362 30.7699 18.9402 32.2678 21.9469C32.3614 22.1413 32.6567 21.9973 32.5703 21.8065L32.5739 21.8029Z" fill="black"/>
<path d="M52.9892 52.798C52.6399 50.9868 46.4141 49.6257 43.0617 52.1067C42.5324 52.4991 41.3117 53.403 41.2721 54.7929C41.2469 55.6679 41.7078 56.3556 41.9707 56.6869C41.9635 56.7949 41.8842 58.3901 43.1481 59.3191C44.1492 60.0573 45.5715 60.0645 46.6661 59.3119C47.7464 59.8952 48.5602 59.7908 48.8843 59.726C50.6054 59.3731 52.0134 57.2738 51.981 54.5372C52.8992 53.7414 53.0612 53.1833 52.9856 52.798H52.9892Z" fill="#FEF2DA"/>
<path d="M52.2224 54.8226C55.103 52.2768 51.4518 50.6492 49.0428 50.5232C46.7023 50.3287 44.2285 50.8185 42.3165 52.2408C40.8618 53.303 40.6061 55.2043 41.7764 56.5798C41.8268 56.641 41.9168 56.6518 41.978 56.6014C42.032 56.5582 42.0464 56.4789 42.014 56.4213C41.2254 55.0998 41.3659 53.6091 42.691 52.7305C45.1107 51.1317 48.3839 50.7824 51.1349 51.625C51.7398 51.8375 52.4816 52.1724 52.6977 52.7845C52.9101 53.4146 52.3736 54.088 51.9847 54.5885C51.8479 54.7397 52.0783 54.9594 52.2224 54.8226Z" fill="black"/>
<path d="M51.6322 53.8218C51.7654 55.2477 51.6646 56.76 50.732 57.8835C49.6301 59.1978 47.1635 60.2816 46.3606 58.1716C46.1805 57.7431 46.1085 57.2677 46.0725 56.778C46.0653 56.6124 45.8132 56.598 45.7844 56.76C45.4964 58.0851 46.2057 59.7847 47.6785 60.0224C49.09 60.1988 50.3935 59.3562 51.2757 58.3264C52.2515 57.0409 52.446 55.2549 51.9562 53.7461C51.8914 53.5625 51.6034 53.6309 51.6322 53.8254V53.8218Z" fill="black"/>
<path d="M46.728 59.1539C43.7141 60.6662 41.2476 57.8684 42.7275 54.9661C42.8031 54.8221 42.5979 54.6816 42.4899 54.8005C40.7218 56.7161 41.9821 60.2125 44.7116 60.1981C45.5145 60.2053 46.3391 59.9749 46.9153 59.4311C47.0557 59.3051 46.8937 59.071 46.728 59.1539Z" fill="black"/>
<defs>
<linearGradient id="paint0_linear_5599_75786" x1="8.40392" y1="47.8231" x2="62.4559" y2="19.1966" gradientUnits="userSpaceOnUse">
<stop stop-color="#649657"/>
<stop offset="1" stop-color="#162113"/>
</linearGradient>
<linearGradient id="paint1_linear_5599_75786" x1="52.6324" y1="52.6983" x2="14.9378" y2="51.1646" gradientUnits="userSpaceOnUse">
<stop stop-color="#761F00"/>
<stop offset="1" stop-color="#EB3F00"/>
</linearGradient>
<linearGradient id="paint2_linear_5599_75786" x1="62.7176" y1="43.4735" x2="47.1674" y2="49.2411" gradientUnits="userSpaceOnUse">
<stop stop-color="#761F00"/>
<stop offset="1" stop-color="#EB3F00"/>
</linearGradient>
<linearGradient id="paint3_linear_5599_75786" x1="52.572" y1="31.8738" x2="32.7119" y2="31.0658" gradientUnits="userSpaceOnUse">
<stop stop-color="#761F00"/>
<stop offset="1" stop-color="#EB3F00"/>
</linearGradient>
<linearGradient id="paint4_linear_5599_75786" x1="50.3621" y1="28.2166" x2="43.0693" y2="27.9199" gradientUnits="userSpaceOnUse">
<stop stop-color="#FF753F"/>
<stop offset="1" stop-color="#CD3700"/>
</linearGradient>
<linearGradient id="paint5_linear_5599_75786" x1="29.1225" y1="21.4162" x2="22.7363" y2="21.1564" gradientUnits="userSpaceOnUse">
<stop stop-color="#FF753F"/>
<stop offset="1" stop-color="#CD3700"/>
</linearGradient>
<linearGradient id="paint6_linear_5599_75786" x1="19.4772" y1="38.1575" x2="15.3858" y2="36.8722" gradientUnits="userSpaceOnUse">
<stop stop-color="#FFCDC0"/>
<stop offset="0.07" stop-color="#FFCFC0"/>
<stop offset="0.56" stop-color="#FFDDC0"/>
<stop offset="1" stop-color="#FFE2C0"/>
</linearGradient>
<linearGradient id="paint7_linear_5599_75786" x1="42.4574" y1="42.8532" x2="37.5211" y2="42.6524" gradientUnits="userSpaceOnUse">
<stop stop-color="#FFCDC0"/>
<stop offset="0.07" stop-color="#FFCFC0"/>
<stop offset="0.56" stop-color="#FFDDC0"/>
<stop offset="1" stop-color="#FFE2C0"/>
</linearGradient>
</defs>
</svg>
