<svg width="162" height="31" viewBox="0 0 162 31" fill="none" xmlns="http://www.w3.org/2000/svg">
<path d="M45.4612 18.1958C45.4612 18.7061 45.4396 19.255 45.3927 19.8135C45.3818 19.976 45.3289 20.159 45.193 20.2541C42.1442 20.5382 31.6641 20.2228 28.5721 20.3371C28.3255 20.3299 28.2666 20.6188 28.3051 20.8427C28.3844 21.5661 28.542 22.2354 28.7729 22.8432C29.7098 25.383 32.2571 27.0044 34.921 27.0477C37.6583 27.1825 40.0708 25.9054 41.0931 23.4342C41.1893 23.2368 41.3601 23.1189 41.5621 23.1056C42.22 23.0695 43.8364 23.0599 44.5267 23.0984C44.8503 23.0948 44.9765 23.4029 44.8503 23.6894C44.2597 25.4119 43.2327 26.8467 41.7762 27.989C39.8964 29.4864 37.5187 30.0895 35.0485 30.057C29.7194 30.081 25.4812 26.3436 24.7752 21.0449C24.3807 18.2656 24.7752 15.201 26.0645 12.9561C28.3676 8.63482 33.7532 7.15427 38.274 8.34593C42.7408 9.50148 45.5298 13.576 45.46 18.1705V18.1958H45.4612ZM41.5237 17.4254C41.6992 17.3773 41.8219 17.1449 41.7943 16.9439C41.7257 15.7691 41.4274 14.7713 40.8574 13.8721C38.5555 10.1924 32.4555 9.99138 29.8204 13.3509C29.4296 13.8276 29.1109 14.3632 28.8655 14.959C28.6262 15.5392 28.453 16.1772 28.352 16.8681C28.3075 17.0968 28.3411 17.4206 28.5997 17.4495C31.6834 17.4916 38.2211 17.5373 41.508 17.4314L41.5237 17.4254Z" fill="#FFFFEE"/>
<path d="M57.6427 30.0583C53.7412 30.139 49.2372 28.0108 49.0195 23.7654C49.0183 23.5451 49.1278 23.4248 49.3178 23.42C49.9841 23.3995 51.6522 23.3959 52.3209 23.42C52.5542 23.4139 52.6733 23.6318 52.7069 23.8593C52.8934 24.7922 53.4959 25.6119 54.3173 26.1632C56.1045 27.3717 59.4732 27.4198 61.0727 25.9886C62.3019 24.9848 62.4366 22.8711 61.0571 21.9683C60.0372 21.3388 59.1641 21.1016 57.8893 20.7128C56.3498 20.3024 54.5939 19.8402 53.2097 19.2552C51.7821 18.6593 50.4279 17.6181 49.8001 16.1641C48.5938 13.0224 50.1284 10.0192 53.2241 8.73006C56.2236 7.471 60.6133 7.65396 63.1486 9.90126C64.4029 11.0002 65.1209 12.4567 65.2929 14.261C65.317 14.4536 65.2617 14.6847 65.0416 14.6823C64.3765 14.7076 62.6855 14.7088 62.0144 14.6823C61.8112 14.6847 61.6969 14.4994 61.6789 14.3068C61.5057 12.3279 59.8232 11.1687 57.8796 11.0062C56.4617 10.8775 54.9259 11.0977 53.9637 11.8886C52.8068 12.7336 52.5951 14.5415 53.5705 15.602C54.6312 16.7262 56.1839 17.0657 57.6608 17.5279C59.045 17.9094 60.6326 18.3632 61.8256 18.858C63.24 19.4405 64.5797 20.4733 65.151 21.9322C65.7379 23.5475 65.5455 25.512 64.5833 26.9347C63.1125 29.1459 60.3656 30.074 57.668 30.0631H57.6427V30.0583Z" fill="#FFFFEE"/>
<path d="M90.0081 18.1941C90.0081 18.7249 89.984 19.2919 89.9347 19.8757C89.9263 20.0105 89.8914 20.1718 89.7892 20.2584C86.7597 20.5136 76.2218 20.238 73.131 20.3379C72.8688 20.3295 72.805 20.6075 72.8519 20.8434C73.167 24.6579 76.3421 27.2206 79.9922 27.0497C82.525 27.01 84.5924 25.7906 85.5798 23.5602C85.6712 23.2629 85.919 23.0943 86.2173 23.104C86.9088 23.0811 88.4903 23.0703 89.1614 23.1016C89.45 23.0943 89.5258 23.3688 89.4236 23.618C88.8126 25.4596 87.6749 26.9991 86.0958 28.1655C82.8522 30.5561 77.7745 30.6716 74.2879 28.6795C68.9529 25.7449 67.8801 17.9329 70.615 12.958C72.9181 8.63677 78.3037 7.15623 82.8245 8.34788C87.2912 9.50343 90.0802 13.5767 90.0105 18.1724V18.1953H90.0081V18.1941ZM86.1271 17.4201C86.2858 17.3756 86.37 17.1397 86.3435 16.9579C86.2738 15.7723 85.9779 14.7744 85.4054 13.8704C84.1859 11.894 81.8395 10.9406 79.5665 10.9683C76.8316 10.9467 74.401 12.4994 73.3931 14.9995C73.1562 15.5821 72.9878 16.2212 72.8892 16.9158C72.8351 17.1601 72.9061 17.4346 73.1755 17.4478C76.2675 17.4695 82.8209 17.5297 86.1114 17.4274L86.1271 17.4213V17.4201Z" fill="#FFFFEE"/>
<path d="M98.2713 11.6183C99.67 9.32891 101.825 7.99522 104.658 7.93142C104.89 7.90253 105.167 7.98077 105.147 8.25521C105.167 8.93651 105.161 10.6169 105.147 11.3066C105.183 11.5822 104.867 11.6147 104.637 11.5979C100.573 11.3319 98.1138 13.7501 98.2389 18.1002C98.2389 18.5805 98.2545 27.2832 98.2389 29.4246C98.2521 29.5726 98.1511 29.7303 97.9839 29.7159C97.326 29.7351 95.6928 29.7363 95.0133 29.7159C94.8533 29.7255 94.6886 29.616 94.6898 29.4499C94.6633 26.1084 94.6645 13.8199 94.6862 8.90401C94.6862 8.6729 94.6393 8.33827 94.9447 8.30818C95.5593 8.27808 97.1721 8.28049 97.8564 8.30216C98.3231 8.27808 98.2461 8.79206 98.2509 9.12067C98.2798 9.89104 98.1872 10.8949 98.2641 11.6147L98.2701 11.6171L98.2713 11.6183Z" fill="#FFFFEE"/>
<path d="M117.138 26.1348C117.236 26.1782 117.337 26.0735 117.361 25.9748C118.681 22.6851 122.449 11.5521 123.893 8.42248C124.002 8.33822 124.127 8.31054 124.256 8.30332C124.918 8.27082 126.482 8.26961 127.155 8.30091C127.351 8.29489 127.574 8.45619 127.499 8.66563C126.077 12.385 120.874 25.6738 119.314 29.4546C119.145 29.7399 118.813 29.7182 118.511 29.7219C117.631 29.7423 116.11 29.7387 115.436 29.711C115.338 29.7074 115.247 29.693 115.16 29.634C113.377 25.9242 108.431 12.6691 106.838 8.73063C106.807 8.64637 106.807 8.50674 106.886 8.40924C106.947 8.33221 107.037 8.30572 107.13 8.29971C107.796 8.25878 109.409 8.2648 110.086 8.30211C110.223 8.30934 110.353 8.34304 110.469 8.43813C111.977 11.646 115.705 22.9077 117.128 26.1288L117.139 26.1336H117.138V26.1348Z" fill="#FFFFEE"/>
<path d="M132.94 4.84039C131.15 4.86567 130.005 2.93373 130.767 1.35569C131.944 -0.950589 135.338 -0.139297 135.292 2.47031C135.313 3.72336 134.219 4.87289 132.964 4.84039H132.94ZM134.447 8.34194C134.599 8.41295 134.676 8.60555 134.67 8.76203C134.696 11.7556 134.697 17.0278 134.695 20.6341C134.692 24.2476 134.682 27.6311 134.67 29.2357C134.688 29.4523 134.577 29.7364 134.314 29.7183C133.795 29.7484 132.723 29.7521 131.987 29.734C131.623 29.7232 131.108 29.7833 131.119 29.2838C131.198 25.4079 130.86 12.1432 131.246 8.38527C131.314 8.32268 131.399 8.30703 131.487 8.30221C132.216 8.28536 133.768 8.22638 134.432 8.33471L134.448 8.34194H134.447Z" fill="#FFFFEE"/>
<path d="M150.025 30.0568C146.239 30.0954 142.632 28.2104 140.823 24.8954C139.866 23.2259 139.396 21.1447 139.39 19.1008C139.215 12.9066 143.69 8.03644 149.839 7.96542C157.389 7.7307 162.083 13.9442 160.804 21.2771C159.949 26.5264 155.302 30.1459 150.049 30.0568H150.025ZM150.048 26.9344C153.663 26.9621 156.678 24.3983 157.229 20.7715C157.56 18.8179 157.325 16.3817 156.471 14.8096C154.062 9.86847 146.375 9.73847 143.932 14.7109C142.736 16.9534 142.696 20.798 143.865 23.1717C144.975 25.5658 147.408 26.9621 150.025 26.9344H150.048Z" fill="#FFFFEE"/>
<path d="M3.99707 0.795898C5.98089 0.795898 7.35019 2.30143 7.35938 4.18848L7.35547 4.39355C7.32026 4.87672 7.11557 5.38459 6.87988 5.83789C6.60065 6.37485 6.23032 6.92235 5.86914 7.40625C5.50608 7.89265 5.14287 8.3281 4.87109 8.64062C4.73492 8.79721 4.62032 8.92372 4.54004 9.01172C4.50006 9.05553 4.46826 9.08967 4.44629 9.11328C4.43539 9.125 4.42685 9.13429 4.4209 9.14062C4.41793 9.14378 4.41571 9.14669 4.41406 9.14844L4.41113 9.15137L3.98633 9.60059L3.5625 9.15039L3.9873 8.75C3.59762 9.1164 3.56525 9.14695 3.5625 9.14941H3.56152C3.56105 9.14891 3.56039 9.14735 3.55957 9.14648C3.55797 9.14477 3.55552 9.14264 3.55273 9.13965C3.54684 9.13332 3.53827 9.12412 3.52734 9.1123C3.50558 9.08876 3.47425 9.05449 3.43457 9.01074C3.35485 8.92284 3.24096 8.79609 3.10547 8.63965C2.83494 8.32728 2.4728 7.89208 2.10938 7.40625C1.74772 6.92276 1.37582 6.37664 1.0918 5.8418C0.817526 5.32526 0.58313 4.74256 0.583008 4.20801C0.583008 2.35766 2.0137 0.79592 3.99707 0.795898Z" fill="#E73D00" stroke="#E73D00" stroke-width="1.16667"/>
<path fill-rule="evenodd" clip-rule="evenodd" d="M5.27338 10.9204C5.42371 10.8627 5.66425 10.8434 5.7785 10.8795C5.80616 10.965 5.7785 11.2551 5.7785 11.6944C5.76287 12.7838 5.74122 14.67 5.7761 15.5438C5.76166 15.8496 6.03227 16.1023 6.32933 16.0879C7.35521 16.1324 10.5387 16.0879 10.9608 16.0819C12.6301 16.0819 14.3427 15.7533 15.4865 14.5207C17.3314 12.6369 17.2508 8.60092 15.2411 6.98316C13.3385 5.39909 10.5399 5.84085 8.16821 5.77465C7.98661 5.77946 8.1598 5.57845 8.18625 5.47974C8.61561 4.63234 8.59877 3.80059 8.2536 2.98689C8.22354 2.90023 8.20189 2.85689 8.28006 2.84847C11.5405 2.78708 15.276 2.72449 17.8365 4.91882C21.9244 8.15796 21.1571 15.6389 16.326 17.8646C15.6801 18.2148 14.7492 18.4604 14.0024 18.6758C14.2477 19.0899 19.3783 27.5531 20.646 29.733C20.7374 29.8931 20.6243 30.0917 20.4259 30.058H16.9574C16.4318 30.0953 16.3007 29.5452 16.0554 29.1865C14.3163 26.4505 10.3944 19.0249 9.91931 18.931C8.96198 18.9298 6.95111 18.9322 6.15734 18.931C5.95409 18.9383 5.86028 18.9154 5.78452 18.9407C5.7773 19.167 5.8242 27.1944 5.78452 29.68C5.78331 29.7787 5.75325 29.8847 5.67507 29.9581C5.5993 30.0327 5.49347 30.058 5.39004 30.0568H2.60705C2.40741 30.0881 2.20295 29.8883 2.2246 29.7077C2.2246 27.2257 2.21378 14.9697 2.22821 10.8723C2.41462 10.8651 2.70447 10.9012 2.87404 11.0228C3.21199 11.3165 3.76763 12.1085 3.91436 12.289C3.95765 12.3492 3.9793 12.3203 4.0226 12.2698C4.39062 11.8605 4.81275 11.2587 5.25534 10.9301L5.27458 10.9216H5.27338V10.9204Z" fill="#FFFFEE"/>
</svg>
