<svg width="24" height="24" viewBox="0 0 24 24" fill="none" xmlns="http://www.w3.org/2000/svg">
<g clip-path="url(#clip0_5415_71272)">
<path fill-rule="evenodd" clip-rule="evenodd" d="M23.3791 2.05298C23.5527 2.19637 23.6964 2.37255 23.8019 2.57146C23.9074 2.77037 23.9726 2.98812 23.994 3.21226C24.0153 3.4364 23.9923 3.66254 23.9262 3.87778C23.8601 4.09302 23.7523 4.29314 23.6088 4.4667L9.82599 21.1467L9.82084 21.1501C9.5077 21.5271 9.11434 21.8294 8.66946 22.0349C8.22459 22.2404 7.73944 22.344 7.24942 22.3381C6.75203 22.3325 6.26241 22.2141 5.81733 21.992C5.37225 21.7699 4.9833 21.4499 4.6797 21.0558L4.67799 21.0524L0.361415 15.505C0.217283 15.3279 0.109965 15.1239 0.0457582 14.9048C-0.0184484 14.6857 -0.03825 14.456 -0.0124844 14.2292C0.0132812 14.0024 0.0840948 13.783 0.195801 13.5839C0.307507 13.3848 0.457855 13.21 0.638023 13.0698C0.81819 12.9296 1.02455 12.8268 1.24498 12.7674C1.46542 12.708 1.6955 12.6933 1.92171 12.724C2.14793 12.7548 2.36572 12.8304 2.56232 12.9464C2.75891 13.0625 2.93035 13.2166 3.06656 13.3998L7.29056 18.829L20.9637 2.2827C21.1071 2.10911 21.2833 1.96546 21.4822 1.85997C21.6811 1.75448 21.8988 1.6892 22.123 1.66787C22.3471 1.64654 22.5733 1.66957 22.7885 1.73565C23.0037 1.80172 23.2039 1.90956 23.3774 2.05298H23.3791Z" fill="black"/>
</g>
<defs>
<clipPath id="clip0_5415_71272">
<rect width="24" height="24" fill="white"/>
</clipPath>
</defs>
</svg>
