<svg width="7" height="7" viewBox="0 0 7 7" fill="none" xmlns="http://www.w3.org/2000/svg">
<path d="M3.5 0C3.5 0.426777 3.58376 0.849847 3.74707 1.24414C3.91039 1.63834 4.15043 1.99613 4.45215 2.29785C4.75387 2.59957 5.11166 2.8396 5.50586 3.00293C5.85078 3.1458 6.21768 3.2278 6.58984 3.24609L6.75 3.25V3.5C6.32321 3.5 5.90016 3.58375 5.50586 3.74707C5.11166 3.91039 4.75387 4.15043 4.45215 4.45215C4.15043 4.75386 3.9104 5.11167 3.74707 5.50586C3.58375 5.90015 3.50001 6.32322 3.5 6.75H3.25C3.24999 6.32322 3.16625 5.90015 3.00293 5.50586C2.8396 5.11167 2.59957 4.75386 2.29785 4.45215C1.99613 4.15043 1.63834 3.91039 1.24414 3.74707C0.849839 3.58375 0.426788 3.5 0 3.5V3.25C0.426796 3.25 0.849833 3.16626 1.24414 3.00293C1.63834 2.8396 1.99613 2.59957 2.29785 2.29785C2.59957 1.99613 2.83961 1.63834 3.00293 1.24414C3.16624 0.849847 3.25 0.426777 3.25 0H3.5ZM3.375 0.923828C3.33637 1.06501 3.28962 1.20411 3.2334 1.33984C3.05752 1.76429 2.79949 2.14973 2.47461 2.47461C2.14972 2.79949 1.7643 3.05751 1.33984 3.2334C1.20382 3.28974 1.06434 3.33632 0.922852 3.375C1.06434 3.41368 1.20382 3.46026 1.33984 3.5166C1.76429 3.69248 2.14973 3.95051 2.47461 4.27539C2.79949 4.60027 3.05751 4.98571 3.2334 5.41016C3.28949 5.54558 3.33641 5.68435 3.375 5.8252C3.41359 5.68435 3.46051 5.54558 3.5166 5.41016C3.69249 4.98571 3.95051 4.60027 4.27539 4.27539C4.60027 3.95051 4.98571 3.69248 5.41016 3.5166C5.54589 3.46038 5.685 3.41363 5.82617 3.375C5.685 3.33637 5.54588 3.28962 5.41016 3.2334C4.9857 3.05751 4.60028 2.79949 4.27539 2.47461C3.95051 2.14973 3.69248 1.76429 3.5166 1.33984C3.46038 1.20411 3.41363 1.06501 3.375 0.923828Z" fill="#223300"/>
</svg>
