<svg width="10" height="10" viewBox="0 0 10 10" fill="none" xmlns="http://www.w3.org/2000/svg">
<path d="M5.18555 0C5.18559 0.63196 5.30999 1.25791 5.55176 1.8418C5.79373 2.42596 6.14861 2.9572 6.5957 3.4043C7.0428 3.85138 7.57405 4.20628 8.1582 4.44824C8.74207 4.68999 9.36806 4.81441 10 4.81445V5.18555C9.36806 5.18559 8.74207 5.31001 8.1582 5.55176C7.57405 5.79372 7.0428 6.14862 6.5957 6.5957C6.14861 7.0428 5.79373 7.57404 5.55176 8.1582C5.30999 8.74209 5.18559 9.36804 5.18555 10H4.81445C4.81441 9.36803 4.69001 8.74209 4.44824 8.1582C4.20627 7.57404 3.85139 7.0428 3.4043 6.5957C2.95721 6.14863 2.42593 5.79372 1.8418 5.55176C1.25794 5.31002 0.631921 5.18559 0 5.18555V4.81445C0.631921 4.81441 1.25794 4.68998 1.8418 4.44824C2.42593 4.20628 2.95721 3.85137 3.4043 3.4043C3.85139 2.9572 4.20627 2.42596 4.44824 1.8418C4.69001 1.25791 4.81441 0.631968 4.81445 0H5.18555ZM5 1.36621C4.94273 1.57599 4.87358 1.78268 4.79004 1.98438C4.52946 2.61331 4.1474 3.18463 3.66602 3.66602C3.18464 4.14737 2.61328 4.52947 1.98438 4.79004C1.78268 4.87357 1.57598 4.94274 1.36621 5C1.57598 5.05726 1.78268 5.12643 1.98438 5.20996C2.61328 5.47053 3.18464 5.85263 3.66602 6.33398C4.1474 6.81537 4.52946 7.38669 4.79004 8.01562C4.87346 8.21703 4.94278 8.42335 5 8.63281C5.05722 8.42335 5.12654 8.21703 5.20996 8.01562C5.47054 7.38669 5.8526 6.81537 6.33398 6.33398C6.81536 5.85261 7.3867 5.47053 8.01562 5.20996C8.21703 5.12655 8.42335 5.05722 8.63281 5C8.42335 4.94278 8.21703 4.87345 8.01562 4.79004C7.3867 4.52947 6.81536 4.14739 6.33398 3.66602C5.8526 3.18463 5.47054 2.61331 5.20996 1.98438C5.12642 1.78268 5.05726 1.57598 5 1.36621Z" fill="#223300"/>
</svg>
